<?xml version="1.0" encoding="UTF-8" standalone="no"?><!DOCTYPE svg PUBLIC "-//W3C//DTD SVG 1.1//EN" "http://www.w3.org/Graphics/SVG/1.1/DTD/svg11.dtd"><svg width="100%" height="100%" viewBox="0 0 2500 1875" version="1.1" xmlns="http://www.w3.org/2000/svg" xmlns:xlink="http://www.w3.org/1999/xlink" xml:space="preserve" xmlns:serif="http://www.serif.com/" style="fill-rule:evenodd;clip-rule:evenodd;stroke-linejoin:round;stroke-miterlimit:2;"><path d="M973.958,1034.1c-0.258,-0.503 -0.512,-1.006 -0.77,-1.514c-0.372,0.428 -0.866,0.8 -1.078,1.294c-0.211,0.495 -0.266,1.142 -0.148,1.671c0.119,0.524 0.533,0.985 0.816,1.471c0.398,-0.972 0.791,-1.945 1.18,-2.922m-87.277,-628.502c-1.163,0.554 -2.998,0.859 -3.315,1.721c-0.364,0.986 0.359,2.652 1.082,3.696c1.133,1.641 2.499,3.218 4.056,4.462c3.657,2.922 7.878,5.239 11.142,8.529c3.269,3.303 5.498,7.616 8.492,11.227c1.691,2.039 3.742,4.449 6.093,5.143c5.709,1.687 8.652,6.245 12.285,10.14c5.07,5.438 10.601,10.268 16.445,14.915c9.414,7.485 20.011,13.989 25.538,25.449c4.998,4.355 8.724,9.916 15.76,12.216c5.506,1.802 10.872,5.333 13.215,11.524c5.104,3.302 9.828,6.897 13.109,12.284c1.315,2.153 3.853,3.793 6.166,5.071c6.656,3.67 11.426,9.26 15.786,15.198c2.156,2.939 4.618,4.601 8.195,5.116c2.821,0.411 4.626,2.483 6.123,4.83c1.083,1.695 2.081,3.619 3.607,4.82c3.781,2.977 7.819,5.151 12.974,2.804c7.971,-3.637 16.281,-6.588 21.736,-14.175c1.057,-1.471 3.277,-2.757 5.07,-2.926c5.197,-0.478 7.878,-5.311 12.264,-6.643c5.336,-1.624 9.557,-4.254 13.536,-8.162c2.77,-2.723 6.901,-4.089 10.483,-5.958c4.761,-2.487 9.565,-4.897 14.382,-7.29c7.303,-3.629 13.912,-7.955 18.852,-14.788c1.831,-2.533 5.231,-4.77 8.275,-5.405c5.591,-1.167 9.583,-4.021 13.786,-7.671c5.548,-4.808 11.921,-8.787 18.323,-12.458c10.504,-6.026 21.334,-11.493 31.991,-17.261c1.755,-0.948 3.362,-2.182 4.964,-3.379c1.29,-0.964 1.535,-2.25 0.791,-3.603c-0.304,-0.55 -0.698,-1.379 -1.154,-1.455c-7.143,-1.205 -14.226,-3.954 -21.576,-1.598c-4.715,1.509 -9.328,1.615 -13.823,-0.347c-3.929,-1.713 -7.815,-1.797 -11.841,-0.693c-3.311,0.909 -6.588,1.179 -9.92,-0.051c-4.496,-1.658 -9.092,-2 -13.926,-1.679c-4.664,0.309 -9.739,0.554 -14.014,-0.939c-4.905,-1.717 -9.345,1.747 -13.921,-0.186c-3.776,-1.594 -7.73,-2.021 -11.853,-2.118c-4.605,-0.11 -9.181,-1.358 -13.786,-1.514c-7.26,-0.241 -14.462,-3.079 -21.862,-0.241c-1.612,0.617 -3.937,-0.55 -5.921,-0.965c-6.474,-1.349 -12.749,-3.759 -19.651,-1.268c-2.186,0.791 -5.463,-0.148 -7.776,-1.26c-5.041,-2.423 -10.187,-3.426 -15.693,-3.02c-4.817,0.36 -9.172,-1.209 -13.744,-2.558c-8.935,-2.63 -17.54,-6.483 -27.034,-7.328c-6.66,-0.597 -13.43,-1.506 -19.807,-3.422c-6.576,-1.974 -13.08,-3.518 -19.88,-2.845c-7.569,0.748 -14.597,-2.229 -21.977,-2.656c-1.953,-0.114 -4.114,-0.089 -5.793,-0.918c-4.922,-2.431 -10.246,-3.171 -15.435,-4.575c-4.474,-1.21 -8.61,-4.398 -13.418,-3.73c-5.916,0.825 -10.018,-3.785 -15.388,-4.22c-0.66,-0.051 -1.341,0.105 -2.013,0.16m1399.41,1126.58c4.03,0 8.064,0.127 12.082,-0.08c1.15,-0.059 2.402,-0.905 3.323,-1.713c0.935,-0.812 -0.207,-4.186 -1.763,-5.239c-2.22,-1.501 -4.381,-3.607 -6.851,-4.132c-8.026,-1.712 -15.418,-4.723 -22.45,-8.872c-2.292,-1.353 -4.855,-2.626 -7.434,-3.027c-7.595,-1.193 -14.078,-4.386 -19.879,-9.342c-1.468,-1.251 -3.548,-1.852 -5.422,-2.55c-8.842,-3.29 -17.625,-6.774 -26.594,-9.688c-8.276,-2.689 -16.251,-6.436 -25.068,-7.383c-1.941,-0.207 -3.929,-0.897 -5.675,-1.785c-7.891,-4.013 -14.733,-9.514 -20.844,-15.832c-3.057,-3.163 -3.349,-7.383 -1.721,-11.363c1.006,-2.457 2.715,-4.757 5.683,-5.298c1.98,-0.36 4.001,-0.529 6.01,-0.681c17.469,-1.298 35.094,-1.015 52.246,-5.421c1.928,-0.495 4.051,-0.165 6.051,-0.449c8.005,-1.15 16.01,-2.334 23.986,-3.691c0.744,-0.127 1.268,-1.544 1.898,-2.36c-0.554,-0.376 -1.082,-1.036 -1.666,-1.091c-6.03,-0.571 -12.149,-0.609 -18.09,-1.666c-6.623,-1.18 -13.042,-3.468 -19.639,-4.867c-3.937,-0.833 -8.034,-0.91 -12.064,-1.269c-3.362,-0.3 -6.872,0.008 -10.073,-0.854c-17.719,-4.783 -36.08,-4.944 -54.082,-7.65c-23.989,-3.603 -48.465,-3.353 -72.379,-8.03c-0.66,-0.131 -1.345,-0.157 -2.017,-0.203c-15.482,-1.007 -30.739,-3.417 -45.844,-6.995c-4.554,-1.078 -9.367,-1.103 -14.065,-1.552c-2.677,-0.258 -5.654,0.275 -8.001,-0.714c-9.48,-4.013 -20.234,-1.662 -29.537,-6.208c-10.01,-1.117 -20.087,-1.497 -29.834,-4.69c-3.713,-1.213 -8.508,0.415 -11.917,-1.171c-7.54,-3.51 -15.951,-2.63 -23.524,-5.734c-2.149,-0.884 -5.219,0.16 -7.777,0.719c-1.091,0.236 0.863,4.583 3.1,6.808c5.666,5.637 12.009,10.512 16.741,17.211c2.614,3.696 7.147,6.047 10.86,8.948c2.638,2.055 5.662,3.717 7.984,6.072c9.48,9.621 20.048,17.981 30.425,26.565c4.677,3.874 10.234,7.016 13.955,11.642c8.559,10.64 19.486,18.497 29.665,27.254c1.531,1.32 3.294,2.478 4.495,4.056c4.982,6.529 11.215,11.73 17.778,16.458c7.053,5.079 14.454,9.697 21.871,14.238c4.605,2.821 9.227,5.417 13.143,9.312c6.318,6.292 14.128,10.525 22.526,13.24c5.185,1.675 9.976,3.569 14.42,6.808c2.618,1.908 6.026,3.328 9.223,3.696c4.576,0.533 7.625,2.977 9.845,6.339c4.643,7.028 11.134,11.388 18.534,15.042c5.346,2.639 11.507,4.258 15.144,9.663c6.922,1.281 11.43,7.413 17.726,9.307c5.485,1.649 9.49,4.178 13.275,8.31c5.658,6.186 13.079,9.176 21.575,9.48c3.501,0.127 5.823,2.288 8.406,4.732c6.479,6.136 14.014,10.517 23.631,8.729c1.746,-0.326 1.793,-1.062 1.209,-2.88c-1.903,-5.954 -5.117,-10.944 -9.929,-14.915c-1.552,-1.281 -3.675,-2.288 -4.521,-3.941c-4.123,-8.069 -13.299,-11.473 -17.532,-19.355c-7.768,-4.043 -11.942,-12.733 -20.628,-15.735c-2.41,-0.833 -4.322,-3.159 -6.398,-4.88c-7.772,-6.432 -15.503,-12.919 -23.292,-19.326c-1.019,-0.841 -2.275,-1.865 -3.476,-1.941c-7.51,-0.465 -12.056,-6.119 -16.995,-10.339c-10.031,-8.572 -11.08,-15.473 1.074,-24.332c2.216,-1.616 4.947,-2.681 7.641,-1.806c6.364,2.064 12.86,3.459 19.161,6.051c11.734,4.83 23.55,10.196 36.79,9.934c1.941,-0.038 4.085,0.49 5.823,1.378c5.002,2.55 10.242,3.121 15.735,2.901c1.987,-0.08 4.178,0.114 5.971,0.888c8.999,3.891 18.606,2.694 27.948,3.612c3.34,0.329 7.011,-0.491 10.013,0.613c6.682,2.457 13.291,1.818 20.015,1.044m-130.579,161.234c-0.161,-0.617 -0.216,-1.294 -0.495,-1.852c-1.886,-3.747 -4.597,-6.737 -8.69,-7.954c-3.544,-1.053 -5.667,-3.104 -6.931,-6.589c-1.138,-3.138 -2.347,-6.546 -4.508,-8.956c-8.128,-9.067 -14.213,-19.605 -21.258,-29.411c-5.975,-8.327 -12.378,-16.103 -20.006,-22.7c-8.728,-7.549 -15.528,-16.767 -23.44,-25.001c-2.292,-2.385 -3.316,-6.461 -5.946,-7.941c-4.981,-2.812 -8.001,-7.096 -11.439,-11.24c-5.091,-6.145 -9.163,-13.384 -17.545,-16.112c-1.738,-0.562 -3.099,-2.541 -4.423,-4.051c-4,-4.575 -8.267,-8.977 -11.73,-13.938c-3.98,-5.7 -8.344,-10.534 -15.152,-12.813c-1.852,-0.622 -4.132,-1.645 -5.024,-3.176c-4.571,-7.814 -13.959,-10.703 -18.479,-18.467c-7.874,-6.152 -12.488,-15.929 -22.286,-19.985c-1.18,-0.49 -2.275,-1.59 -3.011,-2.672c-5.04,-7.413 -11.599,-13.05 -19.554,-17.114c-3.281,-6.326 -10.681,-8.322 -14.682,-13.621c-4.706,-6.237 -12.043,-8.626 -17.473,-13.646c-0.989,-0.918 -2.021,-1.81 -2.892,-2.833c-3.054,-3.59 -5.777,-7.511 -9.126,-10.788c-3.827,-3.742 -8.576,-6.567 -12.247,-10.432c-12.098,-12.741 -25.216,-24.337 -38.769,-35.471c-1.344,-1.108 -2.626,-0.824 -3.264,0.457c-0.271,0.537 -0.546,1.323 -0.347,1.81c2.736,6.791 4.415,13.993 9.172,19.964c3.802,4.774 6.284,10.314 6.753,16.665c0.609,8.2 4.157,15.613 7.105,23.123c4.685,11.938 9.853,23.685 14.623,35.593c10.525,26.29 20.535,52.775 30.354,79.34c4.212,11.38 8.297,22.789 12.403,34.202c2.74,7.616 5.582,15.148 7.933,22.924c2.321,7.684 6.478,14.805 9.633,22.252c1.315,3.1 2.178,6.39 3.15,9.62c2.529,8.428 5.874,16.564 10.018,24.273c4.191,7.785 6.982,16.019 9.773,24.337c5.793,17.278 11.312,34.688 18.065,51.603c3.751,9.405 7.13,18.831 9.823,28.557c1.075,3.878 2.242,7.815 4.035,11.392c4.237,8.445 8.521,16.907 13.472,24.937c3.498,5.675 6.259,11.862 10.771,16.902c0.795,0.884 5.125,0.554 5.675,-0.49c0.622,-1.184 1.607,-2.398 1.653,-3.628c0.398,-10.788 0.635,-21.584 0.872,-32.376c0.029,-1.34 -0,-2.753 -0.377,-4.021c-2.854,-9.688 -5.7,-19.376 -8.762,-28.997c-1.226,-3.844 -3.586,-7.392 -4.393,-11.29c-2.749,-13.236 -7.929,-25.72 -11.481,-38.689c-2.846,-10.399 -5.105,-20.958 -7.583,-31.458c-0.148,-0.626 0.127,-1.34 0.123,-2.017c-0.008,-2.212 4.335,-6.58 6.829,-6.483c1.235,0.051 2.796,0.609 3.591,1.493c9.941,11.062 14.754,25.821 25.935,36.012c11.32,17.486 23.795,34.194 34.853,51.866c4.267,6.816 9.455,13.054 14.137,19.617c5.48,7.692 13.633,12.868 19.067,20.708c2.165,3.125 6.335,4.876 9.637,7.185c0.427,0.296 1.607,0.342 1.65,0.22c0.431,-1.206 1.268,-2.656 0.93,-3.692c-4.601,-14.12 -9.109,-28.282 -17.579,-40.761c-1.886,-2.778 -3.742,-5.802 -4.63,-8.986c-2.982,-10.64 -9.173,-19.406 -15.313,-28.312c-7.692,-11.155 -14.458,-22.864 -17.426,-36.282c-1.349,-6.098 -4.208,-11.321 -7.688,-16.344c-2.305,-3.324 -4.588,-6.665 -6.677,-10.124c-2.331,-3.869 -1.975,-9.912 1.15,-13.244c2.871,-3.066 6.415,-4.665 10.944,-3.075c6.931,2.436 14.158,3.886 19.955,9.122c2.36,2.135 6.2,2.562 9.223,4.051c2.402,1.18 4.986,2.402 6.808,4.267c8.813,9.015 19.947,13.802 31.724,16.86c4.83,1.256 8.572,3.108 12.137,6.402c3.501,3.235 18.687,10.331 25.026,12.399c0.38,0.122 1.074,-0.724 1.624,-1.121m-1031.28,-441.693c1.226,-3.235 2.33,-6.373 3.59,-9.443c5.104,-12.449 9.832,-24.882 11.709,-38.443c2.212,-15.989 6.208,-31.724 6.483,-48.001c0.068,-3.992 1.882,-8.174 1.142,-11.921c-2.288,-11.569 0.452,-22.86 1.23,-34.202c0.652,-9.493 1.383,-18.856 -0.533,-28.222c-0.828,-4.047 -0.744,-7.938 0.06,-12.014c1.839,-9.363 1.505,-18.712 -0.06,-28.185c-1.315,-7.958 -1.619,-16.116 -1.894,-24.205c-0.524,-15.511 -0.896,-31.035 -0.968,-46.559c-0.038,-8.757 0.511,-17.524 1.074,-26.273c0.262,-4.089 1.801,-7.836 4.647,-10.986c1.806,-1.996 3.277,-4.288 5.049,-6.318c7.1,-8.115 20.535,-7.489 26.35,1.256c1.864,2.804 3.75,5.671 5.053,8.749c5.256,12.42 10.61,24.789 15.249,37.484c4.385,11.993 7.307,24.586 13.972,35.724c1.349,2.263 1.755,5.083 2.63,7.633c3.281,9.587 6.601,19.152 12.289,27.682c1.116,1.674 2.139,3.501 2.757,5.404c3.996,12.263 9.903,23.588 16.365,34.697c3.04,5.235 5.81,10.732 7.853,16.416c4.152,11.561 10.897,21.681 16.974,32.185c3.036,5.244 6.478,10.259 9.447,15.545c7.599,13.54 14.987,27.199 22.577,40.748c1.29,2.296 2.762,4.859 4.851,6.267c3.92,2.643 7.912,4.952 10.018,9.502c0.143,0.309 2.748,0.14 3.37,-0.554c1.751,-1.958 3.895,-4.131 4.402,-6.533c1.81,-8.568 3.341,-17.211 3.197,-26.066c-0.224,-13.524 -0.918,-26.997 -3.273,-40.343c-1.645,-9.311 -3.332,-18.619 -4.905,-27.943c-0.905,-5.354 -1.87,-10.771 2.152,-15.465c4.728,-13.024 4.724,-13.024 0.042,-27.161c-0.845,-2.558 -1.188,-5.421 -2.558,-7.654c-6.555,-10.669 -9.227,-22.328 -9.379,-34.667c-0.047,-3.65 -1.468,-6.513 -4.018,-8.919c-2.6,-2.452 -3.522,-5.476 -3.945,-8.982c-1.531,-12.66 -2.212,-25.562 -9.054,-36.938c-0.672,-7.996 -5.582,-15.282 -3.988,-23.66c-2.347,-10.432 -1.776,-21.57 -7.861,-31.123c-0.939,-1.476 -0.973,-4.034 -0.474,-5.823c1.333,-4.736 1.21,-9.215 -0.279,-13.904c-2.956,-9.312 -2.748,-18.683 0.609,-27.876c1.472,-4.039 1.176,-7.828 -0.249,-11.82c-2.829,-7.924 -2.812,-15.824 0.626,-23.685c0.774,-1.772 0.541,-3.983 0.752,-5.992c0.279,-2.579 -1.843,-4.935 -4.609,-5.662c-8.66,-2.284 -17.427,-2.051 -26.125,-0.808c-16.408,2.351 -32.147,-1.281 -47.95,-4.656c-4.838,-3.146 -10.102,-3.484 -15.617,-2.474c-4.766,0.872 -9.747,0.652 -13.976,-1.302c-8.072,-3.726 -17.481,-1.742 -25.266,-6.61c-2.068,-1.289 -5.236,-0.841 -7.904,-1.133c-13.456,-1.48 -26.869,-3.015 -38.938,-9.992c-1.671,-0.969 -3.891,-1.557 -5.798,-1.434c-8.995,0.575 -17.253,-1.916 -25.537,-5.015c-4.364,-1.628 -9.134,-2.326 -13.782,-3.003c-6.081,-0.888 -12.069,-2.165 -17.346,-5.273c-5.963,-3.518 -12.399,-5.852 -19.055,-6.466c-8.267,-0.765 -15.596,-4.025 -23.186,-6.651c-11.43,-3.95 -21.888,-10.593 -34.198,-12.179c-1.903,-0.246 -3.895,-1.383 -5.426,-2.626c-3.915,-3.193 -8.546,-3.616 -13.252,-4.364c-11.342,-1.798 -22.578,-3.916 -32.143,-11.105c-4.47,-3.358 -9.705,-4.242 -15.393,-3.493c-6.838,0.896 -13.177,-0.182 -19.084,-4.622c-4.804,-3.607 -10.555,-5.958 -15.896,-8.851c-2.508,-1.361 -5.138,-1.446 -7.853,-0.706c-3.459,0.947 -6.965,0.896 -9.218,-2.157c-3.176,-4.292 -7.523,-6.026 -12.353,-5.489c-6.69,0.749 -11.827,-0.731 -15.654,-6.588c-1.003,-1.535 -3.235,-2.863 -5.079,-3.15c-7.726,-1.214 -13.16,-6.572 -19.588,-10.128c-3.501,-1.941 -6.766,-4.364 -10.99,-4.99c-3.307,-0.495 -6.47,-1.916 -9.726,-2.804c-3.675,-1.002 -4.284,-5.248 -7.139,-6.804c-5.907,-3.222 -11.827,-7.125 -18.23,-8.533c-6.288,-1.388 -10.965,-4.728 -16.124,-7.798c-8.056,-4.791 -15.79,-10.272 -24.793,-13.207c-4.005,-1.306 -7.265,-3.463 -10.301,-6.203c-2.508,-2.258 -5.024,-4.512 -7.659,-6.61c-1.01,-0.803 -2.431,-1.738 -3.56,-1.624c-10.314,1.049 -15.752,-6.233 -21.825,-12.466c-1.877,-1.928 -3.607,-4.017 -5.59,-5.836c-1.463,-1.34 -3.117,-3.125 -4.876,-3.378c-7.02,-1.003 -11.849,-6.47 -18.255,-8.496c-6.018,-1.899 -10.944,-5.489 -15.038,-9.925c-6.516,-7.07 -14.771,-11.705 -22.353,-17.287c-6.326,-1.125 -9.899,-6.8 -15.401,-9.35c-1.654,-0.765 -3.273,-2.457 -4.039,-4.123c-1.67,-3.641 -4.774,-6.529 -5.247,-10.855c-0.199,-1.801 -1.442,-3.848 -2.825,-5.1c-6.474,-5.857 -13.135,-11.515 -19.816,-17.135c-0.964,-0.807 -2.415,-1.408 -3.658,-1.446c-3.988,-0.127 -7.895,-0.816 -11.984,0.423c-15.689,4.745 -21.377,5.544 -33.496,5.798c-7.405,0.156 -14.746,0.084 -21.901,3.002c-3.603,1.467 -7.941,1.598 -11.938,1.543c-7.485,-0.097 -14.601,1.024 -21.921,2.825c-7.151,1.764 -14.805,1.971 -21.512,5.273c-5.1,2.512 -10.238,2.555 -15.651,2.884c-14.124,0.863 -28.214,2.479 -41.784,6.783c-4.076,1.294 -8.161,1.442 -11.972,0.402c-6.423,-1.755 -12.242,-0.786 -17.38,2.884c-5.379,3.848 -11.367,3.814 -17.388,3.988c-1.975,0.055 -3.963,-0.778 -5.963,-1.074c-4.884,-0.715 -9.679,-0.004 -13.494,3.061c-5.057,4.073 -10.703,5.295 -16.936,5.587c-3.324,0.16 -6.774,2.325 -9.857,1.788c-6.779,-1.188 -11.346,4.216 -17.376,4.724c-6.051,0.507 -12.115,0.858 -18.158,1.412c-1.307,0.123 -2.576,0.778 -3.832,1.26c-7.518,2.884 -14.855,6.212 -23.249,6.043c-2.512,-0.05 -5.261,1.252 -7.549,2.554c-7.222,4.111 -14.99,5.916 -23.186,6.487c-2.677,0.186 -5.294,1.201 -7.971,1.392c-8.631,0.613 -16.966,3.108 -25.888,2.49c-6.546,-0.452 -13.27,2.064 -19.952,3.007c-13.307,1.882 -26.395,4.301 -39.403,8.073c-11.984,3.476 -22.611,8.893 -32.591,15.832c-6.66,4.631 -12.001,10.851 -16.031,17.968c-3.256,5.747 -0.191,14.703 5.709,17.283c6.833,2.994 13.794,5.074 21.431,5.379c18.184,0.731 36.49,-0.228 54.492,3.497c1.285,0.266 2.816,0.338 4.013,-0.093c6.63,-2.406 13.396,-0.224 20.027,-0.803c9.443,-0.825 18.941,-2.06 28.299,-0.762c9.413,1.311 18.873,-1.526 28.244,1.256c3.07,0.91 6.685,0.026 10.051,-0.076c3.366,-0.101 6.758,-0.621 10.086,-0.325c24.937,2.207 49.937,0.668 74.904,1.306c5.362,0.14 10.838,-0.317 16.111,-1.306c7.333,-1.379 14.619,-2.643 22.108,-2.643c7.02,-0 13.38,-2.119 18.429,-7.109c2.508,-2.474 5.552,-3.446 8.593,-4.871c5.759,-2.694 12.026,-1.929 17.748,-3.679c8.208,-2.512 16.01,-0.96 23.977,0.537c3.484,0.655 6.309,2.338 8.686,4.833c3.738,3.92 7.151,8.03 9.633,12.953c3.882,7.705 3.535,9.189 -3.628,15.236c-9.849,8.322 -20.489,15.393 -32.109,20.949c-9.194,4.398 -17.44,10.069 -25.149,16.742c-5.59,4.842 -11.544,9.392 -17.815,13.303c-10.894,6.783 -19.377,16.911 -31.293,22.206c-6.508,6.96 -14.509,12.068 -22.273,17.375c-25.237,17.262 -25.309,17.157 -52.085,40.973c-0.504,0.444 -1.007,1.006 -1.612,1.209c-6.799,2.288 -10.462,8.217 -15.396,12.75c-6.411,5.891 -12.099,12.838 -20.387,16.454c-5.109,5.379 -12.12,8.525 -16.717,14.564c-5.362,7.041 -11.802,12.902 -19.481,17.515c-3.396,2.039 -6.132,5.252 -8.978,8.115c-3.823,3.84 -7.98,7.079 -12.572,10.056c-6.741,4.373 -12.923,9.676 -19.017,14.957c-10.762,9.329 -18.568,21.36 -28.307,31.674c-5.464,5.793 -9.291,13.219 -13.367,20.196c-2.343,4.009 -4.905,8.496 -5.252,12.932c-0.681,8.702 -2.115,17.38 -1.476,26.218c0.774,10.669 6.715,15.519 17.431,14.276c14.843,-1.721 29.576,-3.311 42.63,-11.54c1.658,-1.045 3.789,-1.341 5.7,-1.971c16.763,-5.51 32.232,-13.498 46.922,-23.292c11.173,-7.451 22.527,-14.724 34.795,-20.395c4.685,-2.165 36.401,-23.102 40.786,-26.15c14.932,-10.386 28.121,-23.005 43.222,-33.217c7.781,-5.261 15.004,-11.574 21.605,-18.273c4.321,-4.381 9.155,-7.95 13.925,-11.62c4.279,-3.29 8.965,-5.887 11.489,-11.054c0.833,-1.704 2.749,-2.927 4.305,-4.204c1.032,-0.845 2.343,-1.34 3.459,-2.093c10.048,-6.77 20.007,-13.633 29.187,-21.6c4.051,-3.514 8.441,-7.113 13.317,-9.079c6.271,-2.529 8.292,-8.741 13.058,-12.37c1.07,-0.816 2.372,-1.336 3.421,-2.173c5.256,-4.204 10.462,-8.466 15.689,-12.708c2.643,-6.567 9.561,-9.206 13.472,-14.491c7.955,-10.746 18.269,-17.6 31.099,-21.127c4.359,-1.197 8.127,-0.326 11.493,2.03c2.707,1.894 5.274,4.283 7.168,6.973c2.41,3.421 -0.808,6.25 -2.11,9.151c-5.827,12.969 -10.991,26.184 -13.727,40.169c-1.433,7.345 -3.395,14.415 -6.398,21.27c-1.336,3.049 -2.727,6.424 -2.702,9.638c0.038,4.981 -2.305,9.096 -3.408,13.633c-1.62,6.673 -5.582,12.272 -8.077,18.505c-2.495,6.221 -4.001,12.83 -6.102,19.22c-0.626,1.903 -1.823,3.615 -2.724,5.429c-3.002,6.056 -5.531,12.226 -7.417,18.793c-2.774,9.663 -6.821,18.974 -10.491,28.316c-3.151,8.013 -9.168,14.868 -13.6,22.416c-2.372,4.039 -3.912,8.551 -6.127,12.691c-4.745,8.88 -6.538,19.169 -13.135,27.182c-1.23,1.489 -1.539,3.705 -2.427,5.506c-3.578,7.214 -5.125,15.181 -9.587,22.18c-4.668,7.324 -7.772,15.65 -11.536,23.55c-1.154,2.419 -2.854,4.795 -3.209,7.345c-0.956,6.867 -4.47,12.695 -7.088,18.856c-4.326,10.166 -6.292,17.634 -6.089,29.123c0.063,3.51 -0.698,6.623 -1.988,9.773c-1.065,2.613 -0.617,5.273 0.258,7.899c1.193,3.599 4.969,5.485 7.79,3.891c8.301,-4.698 15.743,-10.449 22.031,-17.664c2.208,-2.533 4.208,-5.493 6.94,-7.29c7.937,-5.231 15.862,-10.289 19.938,-19.461c0.512,-1.15 1.675,-2.203 2.791,-2.867c5.992,-3.552 9.532,-9.409 14.133,-14.306c9.688,-10.314 19.46,-20.564 29.453,-30.603c6.656,-6.694 13.718,-13.135 19.414,-20.594c5.709,-7.477 12.454,-13.98 18.332,-21.279c3.328,-4.132 7.87,-7.126 9.366,-12.741c0.444,-1.662 2.39,-3.261 4.039,-4.195c3.04,-1.721 5.201,-3.942 6.999,-6.982c3.082,-5.214 6.423,-10.335 10.161,-15.101c9.574,-12.221 19.402,-24.235 27.775,-37.357c2.152,-3.374 4.774,-6.588 7.717,-9.29c3.108,-2.855 5.155,-6.157 6.711,-9.955c0.761,-1.852 1.417,-4.11 2.859,-5.256c9.214,-7.303 15.743,-16.327 19.097,-27.652c0.359,-1.205 1.539,-2.203 2.423,-3.222c2.25,-2.584 3.628,-5.459 4.52,-8.859c2.199,-8.344 7.967,-13.841 15.571,-17.545c2.431,-1.184 4.888,-2.318 7.37,-3.396c2.588,-1.125 7.037,0.068 9.05,2.859c1.535,2.127 3.155,4.605 3.489,7.095c0.714,5.333 0.706,10.771 0.854,16.171c0.486,18.167 -1.472,36.452 2.765,54.445c0.453,1.912 -0.177,4.051 0.022,6.052c0.477,4.833 -1.658,9.354 -1.717,13.98c-0.072,5.294 2.562,10.394 1.962,15.929c-0.432,4.005 -0.271,8.069 -0.508,12.095c-0.118,2.013 -1.061,4.097 -0.735,5.992c2.401,14.035 1.573,28.286 3.053,42.372c0.279,2.656 0.757,5.383 1.729,7.848c1.785,4.525 2.047,9.118 2.051,13.905c0.013,8.77 -0.241,17.65 1.024,26.277c0.883,6.013 1.281,12.031 2.059,18.019c0.964,7.417 0.655,14.834 1.133,22.226c0.478,7.354 2.47,14.598 3.404,21.939c0.681,5.328 1.032,10.737 0.981,16.107c-0.076,8.124 0.821,16.133 3.231,23.808c1.459,4.643 0.626,9.4 1.734,13.777c1.294,5.125 4.296,9.845 6.8,14.615c0.478,0.909 2.102,1.712 3.167,1.683c1.146,-0.038 2.85,-0.837 3.294,-1.785c6.014,-12.83 11.849,-25.744 17.727,-38.638c0.043,-4.943 2.094,-9.142 4.796,-13.117c5.814,-8.547 8.817,-18.188 10.808,-28.193c1.595,-7.984 3.971,-15.672 7.764,-22.916c2.504,-4.787 3.849,-10.018 5.642,-15.084c4.245,-11.988 5.865,-25.115 14.339,-35.416c0.393,-0.478 0.558,-1.268 0.567,-1.92c0.114,-7.032 3.713,-12.885 6.521,-18.966c1.298,-2.812 0.249,-5.112 -0.288,-7.721c-0.376,-1.802 -0.271,-4.094 0.562,-5.679c1.861,-3.548 4.242,-6.838 6.534,-10.145c2.364,-3.421 3.742,-6.999 3.755,-11.291c0.025,-8.077 -0.228,-16.251 3.594,-23.804c0.588,-1.163 1.117,-2.778 0.779,-3.924c-2.369,-8.039 1.065,-14.323 5.488,-20.564c1.582,-2.229 0.047,-5.358 0.449,-7.836c1.175,-7.278 4.664,-13.972 7.747,-20.527c3.095,-6.588 8.322,-12.195 12.762,-18.124c2.613,-3.489 6.225,-4.952 10.652,-4.478c8.403,0.896 15.478,4.635 21.681,10.115c2.542,2.245 4.88,5.053 5.125,8.508c0.347,4.969 2.631,8.944 4.973,13.08c1.294,2.283 2.33,4.939 2.622,7.527c1.658,14.623 2.33,29.453 10.504,42.457c-0.913,5.717 2.106,10.339 4.166,15.244c0.486,1.163 1.129,2.8 0.685,3.726c-2.74,5.696 0.122,10.635 2.156,15.46c1.43,3.383 0.351,6.626 0.914,9.832c0.562,3.231 2.068,6.292 2.964,9.485c0.355,1.269 0.089,2.698 0.245,4.034c0.55,4.69 1.709,9.384 1.612,14.057c-0.119,5.645 1.522,10.339 4.605,14.914c1.023,1.523 0.807,3.899 1.082,5.895c0.457,3.32 0.377,6.8 1.37,9.942c1.836,5.781 4.817,11.227 6.327,17.067c1.509,5.827 2.063,11.913 3.188,17.871c3.252,17.236 9.654,33.69 11.921,51.185c1.205,9.299 3.184,18.555 5.176,27.783c3.328,15.392 9.667,29.427 17.224,43.031c1.277,2.301 3.345,4.183 5.159,6.162c1.378,1.509 5.937,2.482 7.573,1.281c1.506,-1.108 2.906,-2.753 3.595,-4.466c0.719,-1.788 0.672,-3.932 0.706,-5.928c0.063,-3.396 0.178,-6.733 1.759,-9.866c4.381,-8.682 5.717,-17.854 4.817,-27.525c-0.436,-4.664 -0.136,-9.417 0.067,-14.12c0.351,-8.094 0.246,-16.276 1.489,-24.243c2.085,-13.333 2.634,-26.832 5.307,-40.123c1.852,-9.21 2.347,-18.686 4.275,-27.981c1.497,-7.202 1.472,-14.771 1.573,-22.188c0.064,-4.741 -0.389,-9.447 1.599,-13.934c-1.637,-9.456 2.588,-18.45 2.118,-27.851c-0.638,-12.804 1.848,-25.584 0.567,-38.426c-0.194,-1.958 -0.046,-4.187 0.723,-5.954c2.491,-5.73 3.189,-11.617 2.965,-17.803c-0.275,-7.57 3.015,-14.446 5.18,-21.474c1.01,-3.286 4.372,-5.019 7.929,-5.523c3.687,-0.524 6.643,1.045 8.829,3.823c1.227,1.56 1.907,3.548 2.829,5.349c7.016,13.672 15.275,34.059 21.482,52.238c2.398,7.024 4.99,14.018 8.086,20.755c3.433,7.481 2.846,15.925 6.229,23.359c0.549,1.214 0.494,2.711 1.086,3.895c5.709,11.473 12.04,22.717 12.615,35.983c7.7,13.667 10.166,29.22 15.54,43.733c2.855,7.709 5.921,14.995 10.881,21.52c1.607,2.115 3.48,4.386 4.06,6.855c3.142,13.439 10.588,24.73 17.672,36.186c1.416,2.287 3.425,4.241 3.598,7.053c0.313,4.952 2.91,8.779 5.371,12.881c8.005,13.337 19.228,24.201 27.939,36.976c4.935,3.341 7.794,9.236 14.209,11.519m-24.417,-653.684c3.552,3.895 7.083,7.811 10.669,11.671c1.374,1.48 2.728,3.062 4.356,4.216c3.844,2.728 7.857,5.214 11.785,7.819c3.92,2.593 7.802,5.244 11.739,7.807c3.929,2.558 6.216,6.99 10.775,8.905c6.546,2.758 11.105,7.418 13.109,14.501c0.499,1.763 2.186,3.362 3.662,4.643c6.081,5.256 14.082,7.937 19.25,14.551c0.985,1.256 3.712,1.222 5.67,1.632c2.724,0.571 5.121,1.624 6.834,3.916c2.47,3.294 5.387,5.95 9.307,7.549c5.058,2.063 9.211,5.501 13.418,8.964c2.499,2.056 5.844,3.375 9.024,4.238c2.935,0.799 4.567,2.393 5.844,4.922c0.905,1.793 1.827,4.317 3.367,4.918c7.649,3.002 12.267,10.479 20.179,13.063c7.79,2.541 14.412,6.778 19.173,13.828c1.802,2.668 4.846,4.55 7.477,6.588c2.643,2.051 5.827,3.501 8.165,5.827c6.301,6.284 13.871,10.754 21.119,15.714c8.487,5.811 17.608,6.107 27.06,3.261c4.503,-1.358 8.804,-3.438 13.337,-4.669c13.676,-3.7 27.343,-7.472 41.154,-10.597c14.365,-3.248 28.244,-8.568 43.062,-9.912c2.609,-0.241 5.176,-1.447 7.662,-2.453c4.368,-1.772 8.584,-3.933 13.003,-5.557c5.037,-1.848 10.006,-4.089 15.719,-3.057c2.609,0.469 5.383,-0.017 8.085,0.025c5.502,0.081 10.238,-0.604 14.564,-5.201c3.539,-3.759 8.931,-5.844 14.344,-6.927c8.576,-1.712 17.054,-4.241 25.706,-5.138c9.409,-0.972 18.556,-3.167 27.868,-4.507c2.77,-0.398 5.277,0.067 7.946,0.427c7.882,1.074 13.329,6.402 19.181,10.842c4.838,3.671 8.614,8.195 10.581,14.429c2.63,8.334 6.774,16.158 12.369,22.97c2.685,3.269 4.102,6.956 5.277,10.813c1.962,6.44 4.174,12.741 7.506,18.653c2.664,4.724 4.343,9.823 4.791,15.338c0.275,3.383 1.603,6.427 3.992,9.083c1.764,1.962 2.626,4.77 4.483,6.61c3.053,3.036 5.1,6.14 4.364,10.677c-0.199,1.214 0.228,2.766 0.888,3.84c5.434,8.787 5.4,19.389 9.616,28.578c0.829,1.801 1.81,3.975 1.505,5.776c-1.086,6.525 2.178,11.79 4.386,17.364c1.239,3.12 3.624,6.051 3.945,9.227c0.846,8.339 4.812,15.405 8.221,22.691c1.767,3.776 2.935,7.506 2.808,11.655c-0.123,4.093 0.152,8.11 2.397,11.73c2.119,3.421 4.58,6.652 4.246,11.096c-0.313,4.221 1.184,7.887 3.967,11.135c1.285,1.501 2.19,3.37 3.023,5.184c0.554,1.205 0.926,2.601 0.943,3.92c0.085,5.557 3.73,10.229 4.178,15.456c0.495,5.798 4.423,9.773 5.988,14.894c0.782,2.562 2.309,4.884 3.201,7.421c1.789,5.062 2.457,10.779 5.269,15.148c3.349,5.197 6.572,9.996 6.69,16.411c0.021,1.032 1.497,2.225 2.546,3.011c2.3,1.721 3.924,3.942 4.03,6.707c0.207,5.514 2.038,10.619 3.831,15.647c1.569,4.389 4.669,8.233 6.233,12.622c1.785,5.011 1.979,10.627 4.001,15.511c4.601,11.126 11.244,21.381 14.331,33.175c10.111,19.955 10.009,19.981 14.547,36.667c0.867,3.176 2.431,6.394 4.461,8.978c4.728,6.009 7.785,12.551 8.783,20.146c0.25,1.898 0.973,4.059 2.216,5.434c3.277,3.62 4.825,7.869 6.314,12.407c1.45,4.41 4.871,7.891 6.444,12.509c2.808,8.25 5.54,16.707 12.581,22.792c1.357,1.176 1.674,3.536 2.516,5.333c2.567,5.485 5.506,10.83 7.62,16.484c1.539,4.114 4.11,6.854 7.692,8.973c2.453,1.45 4.017,3.37 4.111,6.428c0.126,4.089 0.921,8.11 3.273,11.536c2.287,3.336 5.247,6.246 7.298,9.705c2.36,3.987 3.95,8.419 6.064,12.563c0.905,1.772 2.013,3.633 3.51,4.872c2.576,2.127 5.489,4.681 8.982,4.009c6.073,-1.172 11.997,-1.679 17.981,0.135c11.988,-1.878 24.336,-1.429 36.016,-5.168c5.248,-1.678 10.42,-2.347 15.917,-2.275c4.673,0.068 9.523,-0.452 14.01,-1.721c7.273,-2.055 14.636,-2.516 22.07,-2.74c8.766,-0.262 17.57,0.021 26.29,-0.706c10.047,-0.833 20.019,-2.516 30.024,-3.827c5.557,-3.121 11.747,-2.512 17.761,-3.235c12.022,-1.442 24.175,-2.22 35.881,-5.76c1.911,-0.575 4.326,-1.361 5.941,-0.689c6.762,2.812 13.198,0.085 19.753,-0.516c7.4,-0.677 14.796,-1.366 22.196,-2c7.295,-0.626 14.805,1.518 21.914,-1.861c1.057,-0.503 2.693,-0.105 3.966,0.229c8.119,2.152 15.955,0.981 23.876,-1.29c3.159,-0.905 6.681,-0.58 10.043,-0.719c4.723,-0.199 9.553,0.275 14.149,-0.571c14.078,-2.596 28.295,-2.135 42.449,-2.237c18.919,-0.139 37.813,0.004 56.711,-1.501c8.686,-0.689 17.368,-1.121 26.058,-2.093c16.763,-1.886 33.771,-0.013 50.546,-2.664c1.916,-0.301 4.017,0.321 5.992,0.714c5.396,1.083 10.623,1.117 15.947,-0.837c3.104,-1.138 6.58,-1.577 9.916,-1.717c9.523,-0.393 18.691,-2.698 27.923,-4.698c3.662,-0.791 5.116,-4.182 3.391,-7.806c-3.747,-7.879 -8.221,-15.423 -9.21,-24.421c-0.271,-2.491 -2.262,-4.855 -3.675,-7.147c-1.505,-2.444 -1.987,-4.863 -1.019,-7.629c2.47,-7.041 1.383,-14.618 3.239,-21.807c0.605,-2.343 0.059,-5.713 -1.302,-7.692c-4.432,-6.462 -3.671,-12.598 -0.343,-19.055c1.231,-2.381 2.385,-4.935 2.833,-7.54c0.305,-1.776 -0.317,-3.95 -1.158,-5.628c-1.197,-2.381 -3.117,-4.394 -4.453,-6.72c-0.639,-1.104 -1.231,-2.799 -0.833,-3.84c2.757,-7.193 2.647,-14.339 0.93,-21.765c-0.558,-2.419 0.643,-5.269 1.159,-7.899c0.909,-4.614 1.7,-9.261 2.947,-13.786c0.918,-3.341 0.833,-6.419 0.262,-9.845c-0.997,-5.975 -0.943,-12.115 -1.657,-18.145c-0.398,-3.324 -1.408,-6.58 -2.267,-9.832c-0.575,-2.178 -3.949,-4.719 -6.022,-4.867c-8.905,-0.639 -17.849,0.355 -25.846,3.839c-13.642,5.942 -28.535,8.052 -41.919,14.568c-10.779,1.984 -20.235,7.371 -30.096,11.714c-3.688,1.628 -7.312,3.967 -11.177,4.521c-12.991,1.873 -24.4,7.971 -36.046,13.172c-11.117,4.969 -22.272,9.781 -33.749,13.761c-11.435,3.962 -21.99,9.958 -33.944,12.91c-9.109,2.245 -17.939,6.25 -27.242,7.768c-13.456,2.191 -25.609,8.25 -38.609,11.688c-7.962,2.106 -14.42,7.219 -21.621,10.847c-7.269,3.662 -16.074,2.394 -23.36,6.424c-0.579,0.321 -1.29,0.406 -1.907,0.672c-8.043,3.446 -15.625,8.005 -24.421,9.625c-1.903,0.351 -3.873,1.471 -5.366,2.752c-7.329,6.289 -17.063,8.09 -24.84,13.541c-1.577,1.104 -3.717,1.848 -5.641,1.954c-6.935,0.38 -13.151,2.985 -19.292,5.81c-4.372,2.009 -8.931,3.125 -13.671,3.404c-10.796,0.634 -21.161,3.125 -31.394,6.508c-14.915,4.927 -27.876,-0.791 -40.157,-8.331c-2.71,-1.666 -3.298,-5.721 -2.621,-9.303c2.533,-13.443 1.425,-26.776 -0.842,-40.16c-3.607,-21.296 -6.846,-42.651 -5.273,-64.396c0.241,-3.349 -0.051,-6.77 -0.385,-10.123c-0.668,-6.682 -1.527,-13.342 -2.33,-20.011c-1.366,-11.383 -2.922,-22.75 -4.055,-34.159c-0.804,-8.039 -0.326,-16.142 -2.521,-24.117c-2.313,-8.415 -3.886,-17.05 -5.51,-25.643c-3.379,-17.871 -10.749,-34.727 -12.758,-53.012c-0.871,-7.916 -4.613,-15.485 -8.889,-22.459c-1.784,-2.905 -3.801,-5.704 -7.1,-6.964c-6.542,-2.491 -9.151,-9.828 -15.579,-12.399c-2.253,-3.332 -5.323,-6.166 -6.296,-10.28c-8.398,-7.684 -13.426,-18.378 -23.63,-24.654c-6.995,-4.3 -11.714,-11.785 -12.653,-20.027c-0.782,-6.859 -3.421,-12.987 -5.002,-19.49c-1.117,-4.576 0.583,-7.942 3.137,-11.139c3.95,-4.943 9.249,-7.865 15.427,-8.999c1.911,-0.351 4.453,-0.634 5.878,0.305c7.273,4.804 16.898,5.298 22.805,12.504c7.879,2.77 13.879,7.857 18.501,14.742c0.719,1.069 1.89,2.135 3.079,2.541c7.886,2.69 13.599,8.572 20.158,13.236c2.669,1.899 6.25,2.499 8.974,4.343c5.002,3.387 10.254,6.711 14.322,11.071c4.339,4.643 9.308,7.362 15.122,9.252c1.062,0.343 1.582,2.144 2.538,3.079c0.938,0.905 2.106,2.203 3.192,2.22c5.384,0.093 8.077,3.248 11.143,7.299c4.377,5.78 8.952,11.785 16.272,14.589c3.121,1.192 6.381,2.529 8.91,4.609c2.499,2.055 4.005,5.265 6.208,7.73c3.603,4.039 7.303,7.946 13.245,8.576c5.142,0.546 8.356,3.76 10.593,8.297c1.222,2.466 3.383,4.614 6.186,4.741c7.307,0.329 12.911,3.814 17.469,9.032c10.466,11.993 24.988,17.994 38.025,26.193c6.588,0.998 10.741,5.269 14.192,10.504c1.112,1.688 2.173,3.43 3.472,4.969c1.814,2.148 4.296,3.079 7.062,3.523c6.601,1.053 9.265,-1.523 7.599,-7.443c-5.713,-20.294 -14.425,-39.239 -25.889,-56.902c-5.121,-7.887 -10.677,-15.494 -15.883,-23.33c-8.58,-12.915 -14.61,-27.415 -24.48,-39.547c-0.829,-1.024 -1.243,-2.381 -1.869,-3.574c-11.541,-21.985 -13.896,-25.436 -31.45,-46.778c-3.002,-3.649 -5.903,-7.405 -8.575,-11.303c-8.771,-12.801 -19.262,-24.316 -27.673,-37.391c-1.43,-2.224 -3.675,-3.929 -5.548,-5.87c-1.865,-1.932 -4.111,-3.624 -5.54,-5.839c-6.204,-9.642 -13.748,-18.239 -20.738,-27.272c-3.349,-4.334 -5.958,-9.075 -12.534,-8.715c-1.082,0.059 -2.499,-1.074 -3.328,-2.034c-7.075,-8.162 -14.137,-16.34 -21.021,-24.666c-3.573,-4.326 -2.698,-12.649 1.429,-16.725c1.442,-1.421 2.88,-2.859 4.398,-4.199c7.794,-6.88 16.712,-8.741 26.383,-5.032c9.984,3.827 20.763,6.288 28.105,15.176c1.217,1.481 3.213,2.436 5.015,3.29c9.138,4.335 18.34,8.543 27.499,12.839c1.798,0.846 4.077,1.476 5.134,2.93c2.614,3.595 6.009,5.143 10.208,5.764c4.068,0.596 7.921,2.093 11.084,4.72c7.806,6.482 16.944,10.855 25.398,16.301c2.765,1.781 5.988,3.062 9.176,3.92c3.214,0.863 6.698,0.694 9.963,1.417c1.84,0.41 4.093,1.264 5.104,2.673c5.041,7.011 12.162,10.436 20.163,12.457c3.941,0.998 8.102,1.662 10.876,4.855c2.855,3.29 6.14,5.087 10.487,5.185c4.136,0.088 7.967,1.437 11.6,3.34c6.571,3.442 13.35,6.572 19.621,10.504c8.606,5.396 17.622,9.583 27.115,13.253c17.617,6.804 34.955,14.378 52.115,22.26c8.728,4.009 18.01,5.523 27.073,8.048c1.911,0.533 4.207,0.964 5.996,0.393c5.349,-1.7 10.724,-0.474 16.069,-0.791c3.349,-0.203 6.026,-3.937 5.206,-7.235c-0.326,-1.294 -0.377,-2.728 -0.985,-3.869c-2.525,-4.749 -4.635,-9.705 -8.162,-13.917c-12.619,-15.067 -26.015,-29.284 -42.101,-40.791c-4.923,-3.526 -9.591,-7.447 -14.146,-11.447c-12.682,-11.13 -26.184,-21.262 -38.904,-32.375c-9.591,-8.386 -20.818,-14.949 -31.555,-21.964c-10.703,-6.99 -22.15,-12.919 -32.426,-20.467c-8.682,-6.377 -18.129,-11.587 -26.531,-18.379c-4.686,-3.789 -10.107,-7.189 -16.201,-7.984c-6.791,-0.888 -11.244,-8.03 -18.729,-6.453c-6.33,-4.926 -14.009,-8.127 -19.042,-14.694c-1.628,-2.128 -3.002,-4.47 -4.305,-6.817c-1.378,-2.487 -1.323,-4.999 -0.11,-7.697c4.094,-9.117 10.281,-15.219 20.332,-18.187c6.72,-1.988 12.991,-2.867 19.812,-1.726c6.656,1.108 13.409,1.616 20.078,2.66c3.299,0.516 6.855,1.028 9.68,2.626c7.201,4.072 15.109,6.166 22.928,7.98c12.526,2.905 24.62,7.168 37.023,10.419c3.915,1.028 7.831,2.077 11.73,3.176c11.025,3.104 22.163,5.722 33.416,7.87c6.753,3.831 14.187,3.628 21.634,4.013c8.749,0.448 17.486,1.518 26.176,2.694c3.362,0.456 6.512,0.96 9.95,0.182c9.997,-2.263 20.006,-2.225 30.092,-0.005c5.256,1.155 10.711,1.514 16.103,1.908c7.417,0.541 13.934,-5.417 21.668,-3.197c0.499,0.143 1.408,-0.275 1.785,-0.723c0.829,-0.986 1.839,-2.077 2.063,-3.261c0.533,-2.846 -0.828,-5.349 -2.651,-7.328c-3.645,-3.963 -7.84,-7.443 -11.27,-11.57c-4.364,-5.252 -8.631,-10.213 -15.46,-12.581c-3.036,-1.057 -5.912,-3.455 -8.09,-5.92c-4.588,-5.206 -10.724,-8.233 -16.242,-11.997c-8.327,-5.675 -17.351,-10.322 -26.092,-15.384c-9.345,-5.409 -18.509,-11.16 -28.121,-16.052c-6.508,-3.312 -13.155,-6.923 -21.097,-6.001c-4.026,0.465 -7.937,-0.943 -11.912,-1.831c-9.921,-2.216 -19.241,-5.916 -28.709,-9.472c-8.86,-3.328 -17.524,-6.855 -25.939,-11.211c-11.968,-6.195 -24.388,-11.464 -37.345,-15.278c-9.125,-2.686 -17.748,-6.365 -26.095,-10.94c-11.227,-6.153 -22.755,-12.052 -35.128,-15.266c-14.471,-3.751 -27.42,-11.498 -41.962,-14.834c-11.223,-6.39 -23.368,-10.424 -35.53,-14.606c-8.255,-2.842 -15.748,-7.608 -21.33,-14.814c-7.328,-9.455 -6.457,-11.43 1.006,-18.885c3.54,-3.531 5.206,-7.735 7.147,-12.027c3.781,-8.364 10.069,-14.496 18.467,-17.942c10.758,-4.407 21.82,-6.944 33.466,-2.766c3.772,1.353 8.005,1.395 11.803,2.685c5.717,1.937 12.242,3.311 15.756,8.53c3.658,5.429 8.145,5.243 13.777,5.637c8.153,0.57 16.222,0.228 24.265,-0.242c8.081,-0.469 16.149,-0.608 24.201,-0.926c8.838,-0.351 17.503,-0.329 26.235,0.855c2.656,0.359 5.468,0.477 8.09,0.021c8.749,-1.514 17.397,-0.935 26.087,0.372c1.949,0.292 4.102,0.22 6.005,-0.275c11.295,-2.947 22.818,-2.043 34.265,-2.11c12.839,-0.072 25.686,0.469 38.423,-1.848c1.945,-0.355 4.017,-0.436 5.983,-0.207c25.707,2.951 51.308,0.389 76.875,-1.781c5.18,-0.439 10.817,-1.057 15.502,-4.165c0.521,-0.342 0.914,-1.057 1.087,-1.675c0.123,-0.456 -0.08,-1.124 -0.359,-1.543c-0.364,-0.541 -0.88,-1.066 -1.455,-1.37c-17.989,-9.498 -37.966,-14.04 -56.39,-22.497c-2.952,-1.353 -6.635,-1.019 -9.883,-1.84c-2.588,-0.655 -5.079,-1.767 -7.527,-2.867c-14.771,-6.618 -30.13,-11.756 -45.463,-16.712c-25.043,-8.085 -50.762,-14.043 -75.395,-23.482c-1.26,-0.482 -2.567,-0.892 -3.89,-1.133c-12.686,-2.339 -24.51,-7.346 -36.642,-11.46c-11.452,-3.882 -22.7,-8.568 -35.04,-9.76c-5.21,-0.503 -10.546,-2.761 -15.198,-5.345c-8.969,-4.982 -18.564,-8.035 -28.362,-10.458c-5.861,-1.45 -11.113,-5.083 -17.524,-4.656c-1.907,0.127 -4.153,-0.452 -5.789,-1.45c-7.658,-4.677 -16.403,-6.212 -24.776,-8.707c-16.18,-4.813 -31.927,-10.754 -47.578,-17.004c-3.252,-1.302 -6.364,-3.041 -7.379,-6.432c-1.675,-5.595 -4.88,-9.071 -10.318,-11.489c-4.538,-2.018 -5.553,-8.568 -2.495,-12.184c3.023,-3.573 6.66,-6.554 7.903,-11.455c0.47,-1.857 2.546,-2.774 4.572,-3.506c9.163,-3.324 18.45,-3.662 27.985,-2.072c7.9,1.315 15.947,3.501 23.779,2.99c8.994,-0.588 17.312,2.605 26.061,2.427c3.362,-0.068 6.982,0.618 10.023,-0.402c5.34,-1.788 10.686,-1.031 16.018,-1.514c22.835,-2.063 45.438,-6.52 68.476,-6.605c3.324,-0.012 6.652,-1.133 9.955,-1.827c19.156,-4.025 38.579,-6.499 57.921,-9.303c15.993,-2.317 32.02,-5.066 48.271,-5.167c8.094,-0.051 15.799,-3.95 24.07,-2.242c1.226,0.254 2.783,-0.122 3.95,-0.693c7.51,-3.696 15.87,-3.007 23.774,-4.669c4.605,-0.968 9.172,-1.827 13.739,-3.129c7.087,-2.017 14.242,-4.026 21.74,-4.571c4.647,-0.339 9.202,-1.975 13.798,-3.024c5.257,-1.197 10.471,-2.66 15.782,-3.493c4.707,-0.74 9.252,-1.679 13.65,-3.62c2.402,-1.061 5.172,-1.856 7.764,-1.822c6.373,0.084 12.133,-2.212 17.33,-5.108c9.595,-5.346 20.082,-7.87 30.362,-11.08c5.138,-1.607 10.69,-2.101 14.746,-6.186c4.389,-4.415 11.832,-3.016 15.777,-8.441c1.125,-1.548 3.438,-2.207 4.673,-3.709c0.592,-0.719 0.427,-2.837 -0.224,-3.674c-5.831,-7.49 -14.352,-10.796 -23.11,-10.915c-9.447,-0.131 -18.624,-3.154 -28.185,-1.772c-3.146,0.453 -6.466,-0.93 -9.815,0.571c-4.135,1.857 -7.743,-1.564 -11.722,-1.831c-1.349,-0.089 -2.719,-0.359 -4.047,-0.232c-9.421,0.905 -18.801,-0.554 -28.125,-1.155c-9.472,-0.609 -18.826,-0.457 -28.244,-0.029c-4.051,0.181 -8.111,0.148 -12.158,0.334c-6.072,0.283 -12.149,0.401 -17.997,2.516c-1.818,0.655 -4.191,1.158 -5.874,0.545c-4.728,-1.721 -9.159,-0.275 -13.798,-0.025c-8.758,0.469 -17.579,1.801 -26.223,1.433c-8.956,-0.38 -17.236,2.529 -25.926,2.745c-2.017,0.051 -4.064,0.465 -6.039,0.237c-1.945,-0.22 -3.717,-1.007 -5.814,-0.267c-5.066,1.781 -10.137,4.068 -15.38,4.694c-5.236,0.622 -10.686,-0.541 -16.044,-0.884c-0.664,-0.042 -1.341,0.161 -2.013,0.203c-16.171,1.007 -32.375,0.165 -48.546,0.981c-5.497,0.275 -10.762,-0.761 -15.972,-2.173c-2.778,-0.749 -5.066,-0.241 -7.688,0.82c-2.398,0.973 -5.256,0.88 -7.925,1.1c-6.021,0.503 -12.208,-0.347 -17.934,2.524c-1.137,0.571 -2.685,0.702 -3.971,0.52c-3.996,-0.575 -7.988,-2.097 -11.92,-1.919c-3.891,0.173 -7.688,2.067 -11.579,2.981c-1.26,0.296 -2.685,-0.178 -4.034,-0.199c-25.009,-0.427 -49.946,0.55 -74.794,3.573c-7.375,0.897 -14.851,2.017 -22.218,1.662c-12.2,-0.588 -24.226,0.787 -36.24,2.055c-8.809,0.931 -17.465,0.948 -26.223,0.005c-7.996,-0.859 -16.056,-1.679 -24.031,-2.098c-12.788,-0.668 -25.669,0.415 -38.507,0.74c-24.282,0.613 -48.462,3.497 -72.777,3.345c-3.379,-0.021 -6.842,-0.123 -10.12,0.533c-11.345,2.254 -22.831,2.465 -34.316,2.926c-3.358,0.136 -6.99,0.03 -9.997,1.256c-6.326,2.58 -12.762,4.026 -19.537,4.432c-2.059,0.123 -3.924,4.461 -3.061,6.702c0.968,2.508 1.67,5.219 3.112,7.43c5.925,9.101 11.075,18.48 13.338,29.263c0.389,1.869 1.687,3.802 3.099,5.142c3.07,2.914 4.035,6.94 6.174,10.289c2.918,4.563 5.4,9.109 7.193,14.335c1.925,5.616 5.595,10.67 8.754,15.816c2.224,3.62 3.15,7.383 2.804,11.57c-0.356,4.288 1.01,7.971 4.161,10.948c2.575,2.427 3.789,5.324 4.013,8.927c0.245,4.009 1.683,7.984 1.611,11.959c-0.089,5.053 1.214,9.168 4.575,12.923c1.823,2.034 2.018,4.778 2.001,7.607c-0.038,5.329 1.349,10.526 1.514,15.939c0.177,5.806 3.192,11.498 4.71,17.304c0.478,1.831 0.466,3.949 0.076,5.814c-0.553,2.652 -1.573,5.286 -0.524,7.916c2.038,5.121 1.548,10.725 2.922,15.786c1.802,6.631 2.44,13.143 2.677,19.901c0.254,7.358 2.305,14.589 0.884,22.103c-0.457,2.424 0.74,5.193 1.34,7.769c0.753,3.256 2.411,6.482 2.364,9.7c-0.135,9.541 2.411,18.675 3.607,27.999c0.77,6.001 1.933,11.819 1.62,18.01c-0.305,5.963 0.808,12.044 1.776,17.998c0.533,3.26 2.072,6.356 3.1,9.54c0.41,1.268 0.9,2.579 0.951,3.886c0.376,9.422 0.338,18.877 2.14,28.193c-3.129,9.143 -2.093,18.598 -2.085,27.973c-3.666,11.634 -2.11,24.235 -6.686,35.729c-0.702,1.772 -1.019,4.25 -0.338,5.924c2.233,5.481 0.343,10.644 -0.516,15.892c-0.981,5.988 -2.808,11.921 -3.032,17.926c-0.228,6.174 -1.573,11.933 -2.935,17.87c-1.936,8.445 -5.362,16.708 -4.165,25.745c0.245,1.852 -0.727,3.975 -1.497,5.827c-3.611,8.712 -7.984,17.093 -10.631,26.227c-0.693,2.389 -2.871,4.559 -4.833,6.314c-2.5,2.241 -5.426,4.025 -8.242,5.89c-3.692,2.436 -7.878,3.007 -11.401,0.419c-4.419,-3.248 -9.087,-5.667 -14.285,-7.21c-2.49,-4.157 -6.119,-6.986 -10.339,-9.282c-1.729,-0.943 -3.628,-2.313 -4.499,-3.984c-3.286,-6.313 -9.946,-9.07 -14.268,-14.086c-3.518,-4.085 -9.405,-5.341 -11.545,-10.965c-1.907,-5.011 -8.952,-6.03 -10.081,-11.933c-7.599,-9.486 -15.139,-19.017 -22.814,-28.439c-7.637,-9.379 -13.727,-19.951 -22.201,-28.675c-2.457,-2.529 -3.476,-5.704 -4.592,-8.893c-3.565,-10.183 -6.914,-20.45 -10.885,-30.468c-2.711,-6.834 -6.445,-13.261 -7.692,-20.636c-4.626,-6.322 -4.17,-14.12 -6.06,-21.229c-1.412,-5.294 -2.88,-10.347 -6.901,-14.365c-0.842,-0.841 -1.206,-2.423 -1.286,-3.696c-0.076,-1.298 0.613,-2.617 0.723,-3.949c0.588,-7.24 2.229,-14.518 -0.943,-21.63c-0.52,-1.168 -0.279,-2.669 -0.402,-4.013c-1.281,-13.943 0.022,-33.754 3.286,-50.107c1.29,-6.478 0.136,-13.473 4.423,-19.334c1.049,-1.442 -0.207,-3.814 -2.152,-5.028c-2.254,-1.408 -5.07,-2.266 -6.757,-4.157c-7.701,-8.614 -16.86,-15.485 -26.498,-21.549c-6.394,-4.018 -12.179,-8.327 -17.059,-14.09c-2.106,-2.487 -5.171,-4.2 -7.916,-6.103c-3.878,-2.685 -8.182,-4.854 -11.718,-7.924c-3.598,-3.125 -8.867,-3.637 -11.586,-7.955c-2.652,-4.22 -8.496,-3.522 -11.528,-7.738c-2.711,-3.772 -6.736,-6.597 -10.191,-9.832c-1.476,-1.383 -2.749,-3.265 -4.5,-4.017c-6.402,-2.745 -9.886,-9.117 -15.866,-12.297c-6.673,-3.548 -11.291,-9.612 -17.274,-14.002c-3.81,-2.795 -7.638,-5.569 -11.507,-8.28c-3.848,-2.702 -8.102,-4.939 -11.561,-8.068c-3.971,-3.59 -8.432,-6.504 -12.12,-10.623c-5.806,-6.487 -12.8,-11.959 -19.617,-17.469c-2.723,-2.203 -6.935,-2.567 -9.515,-0.266c-5.303,4.728 -11.388,6.977 -18.149,8.166c-1.979,0.342 -3.861,1.226 -5.777,1.89c-3.95,1.374 -7.201,3.649 -9.455,7.256c-1.074,1.717 -2.111,3.506 -3.464,4.986c-1.332,1.459 -2.858,3.028 -4.626,3.742c-4.33,1.76 -8.732,2.884 -12.682,5.921c-4.174,3.205 -9.963,4.288 -14.187,7.442c-4.652,3.472 -9.667,4.47 -15.038,5.219c-2.271,0.312 -3.201,2.461 -1.822,4.275c2.884,3.806 5.611,7.544 5.044,12.754c-0.68,6.241 1.299,11.756 4.009,17.426c3.7,7.747 8.437,15.376 7.43,24.696c-0.207,1.903 0.651,3.996 1.32,5.899c2.672,7.625 5.366,15.253 8.263,22.798c1.23,3.201 2.072,6.351 2.093,9.81c0.012,2.669 0.177,5.447 0.913,7.993c3.18,10.994 6.187,22.065 10.128,32.789c1.493,4.068 -0.791,8.361 1.505,11.731c3.574,5.248 4.487,11.265 5.95,17.105c1.506,6.005 3.531,11.092 9.041,14.991c4.935,3.493 5.096,12.716 0.597,16.12c-7.494,5.675 -13.905,12.534 -21.677,17.993c-9.261,6.513 -19.27,12.45 -26.121,22.053c-2.774,3.891 -6.859,6.741 -11.574,7.811c-6.267,1.421 -11.012,4.749 -15.109,9.523c-1.709,1.987 -4.369,3.129 -6.229,5.015c-5.142,5.202 -12.196,8.741 -14.416,16.547c-0.33,1.167 -1.459,2.428 -2.558,3.011c-8.395,4.449 -14.945,11.397 -22.764,16.628c-5.028,3.366 -10.187,6.795 -14.344,11.104c-2.939,3.049 -5.958,5.455 -9.781,6.813c-4.487,1.59 -8.724,3.51 -12.652,6.254c-2.745,1.916 -5.684,3.971 -8.843,4.804c-8.144,2.144 -13.916,7.866 -20.437,12.441m-128.968,-415.5c-0.047,-3.958 -3.595,-4.69 -6.014,-6.423c-0.452,-0.326 -1.319,-0.444 -1.831,-0.241c-1.831,0.714 -1.535,1.315 0.017,2.533c2.508,1.97 4.821,4.038 8.314,3.615c0.554,3.603 2.719,6.081 5.747,7.815c7.019,4.026 13.138,8.961 18.978,14.708c8.103,7.966 17.051,15.379 26.633,21.456c12.593,7.984 23.478,18.032 35.433,26.743c2.71,1.975 4.994,4.516 7.62,6.622c8.863,7.117 16.911,15.262 27.347,20.378c4.758,2.335 9.012,5.629 12.416,10.069c2.389,3.117 5.78,5.595 9.07,7.865c5.549,3.823 11.325,7.337 17.097,10.822c3.43,2.076 7.278,3.522 10.5,5.852c3.256,2.352 5.95,5.472 8.931,8.208c4.885,4.491 8.771,10.479 16.374,10.957c0.618,0.038 1.48,0.415 1.768,0.905c3.886,6.635 11.443,9.185 16.323,14.809c5.264,6.073 11.155,11.528 18.767,14.902c4.326,1.916 7.76,5.244 10.542,9.232c1.087,1.556 2.821,3.18 4.567,3.662c5.561,1.547 9.253,5.336 12.843,9.426c0.368,0.418 1.201,0.647 1.797,0.609c1.4,-0.089 1.89,-1.087 1.573,-2.715c-1.281,-6.551 -1.793,-13.126 -4.169,-19.605c-3.903,-10.648 -7.447,-21.524 -9.088,-32.887c-1.632,-11.303 -3.522,-22.573 -5.518,-33.821c-0.584,-3.286 -1.667,-6.546 -2.977,-9.629c-1.51,-3.557 -5.684,-3.104 -8.441,-4.859c-5.087,-3.235 -10.644,-5.519 -15.35,-9.629c-3.358,-2.935 -9.025,-3.15 -12.594,-5.941c-7.565,-5.908 -17.092,-7.434 -25.063,-12.42c-5.629,-3.518 -12.319,-5.294 -18.366,-8.204c-6.669,-3.214 -13.291,-6.411 -20.205,-9.176c-9.95,-3.984 -19.126,-9.726 -29.571,-12.851c-5.705,-1.705 -11.334,-4.618 -16.12,-8.166c-5.709,-4.225 -12.737,-4.356 -18.556,-7.498c-7.159,-3.861 -15.448,-5.188 -22.155,-9.375c-7.742,-4.833 -16.551,-5.514 -24.67,-8.639c-3.857,-1.484 -7.324,-3.269 -10.61,-5.599c-2.867,-2.034 -5.908,-2.69 -9.485,-2.537c-3.937,0.165 -7.916,-0.609 -11.874,-0.973m1245.3,226.602c-25.127,0.393 -42.021,0.901 -58.91,0.812c-8.018,-0.043 -15.841,2.017 -24.13,0.131c-7.772,-1.768 -16.12,-1.036 -24.213,-1.366c-6.758,-0.271 -13.516,-0.749 -20.265,-0.651c-6,0.089 -11.997,0.74 -17.963,1.399c-0.926,0.102 -2.339,1.523 -2.385,2.398c-0.06,1.117 0.765,2.969 1.678,3.337c5.582,2.258 11.236,4.385 16.983,6.174c9.105,2.829 17.829,6.186 24.396,13.557c0.862,0.968 2.233,2.102 3.379,2.11c9.049,0.064 14.707,5.709 20.145,11.807c9.946,5.662 19.486,12.255 29.931,16.758c14.302,6.166 27.568,14.069 41.311,21.182c15.566,8.056 30.028,18.273 46.575,24.417c3.333,1.235 5.697,3.548 8.065,5.941c4.782,4.825 10.077,8.695 16.217,11.879c18.179,9.43 33.09,23.207 47.252,37.737c6.06,6.221 12.872,11.98 15.748,20.759c0.567,1.734 2.313,3.349 3.92,4.419c4.237,2.833 6.457,6.605 7.185,11.642c0.473,3.298 1.979,6.432 2.676,9.713c2.199,10.352 0.529,20.125 -4.981,29.166c-1.04,1.708 -2.415,3.277 -3.874,4.652c-1.463,1.382 -3.133,2.609 -4.875,3.611c-3.51,2.017 -6.978,4.267 -10.741,5.65c-10.078,3.696 -19.051,9.696 -29.589,12.639c-12.509,3.493 -24.725,6.039 -37.801,4.043c-6.618,-1.011 -13.485,-0.321 -20.234,-0.571c-8.75,-0.317 -17.626,0.592 -26.126,-2.44c-19.566,-1.806 -38.418,-7.096 -57.426,-11.659c-1.928,-0.465 -3.983,-0.465 -5.984,-0.524c-0.613,-0.017 -1.408,0.347 -1.801,0.808c-0.25,0.292 -0.106,1.247 0.203,1.632c4.85,6.026 20.361,20.844 26.37,24.895c7.857,5.298 14.864,11.599 22.151,17.604c12.453,10.259 24.395,21.173 37.851,30.265c15.097,10.2 28.396,22.666 41.619,35.171c8.729,8.254 13.384,18.598 15.402,30.138c1.543,8.851 1.027,17.448 -5.286,24.903c-4.356,5.146 -7.934,10.94 -12.221,16.145c-4.889,5.929 -11.295,9.845 -18.924,10.94c-10.026,1.442 -20.108,2.791 -30.21,3.256c-6.686,0.305 -13.765,0.047 -20.104,-1.852c-8.495,-2.546 -17.075,-3.806 -25.744,-5.104c-2.614,-0.389 -5.058,-1.852 -7.616,-2.719c-10.872,-3.7 -21.736,-7.434 -32.663,-10.965c-1.844,-0.596 -4.005,-0.47 -5.992,-0.313c-3.662,0.292 -6.517,-1.045 -8.999,-3.616c-3.362,-3.484 -7.379,-5.438 -12.187,-6.706c-8.471,-2.225 -16.721,-5.316 -24.967,-8.314c-3.772,-1.375 -7.696,-2.876 -10.88,-5.227c-7.185,-5.307 -15.368,-8.504 -23.398,-12.022c-10.479,-4.588 -21.076,-8.902 -31.699,-13.143c-0.888,-0.355 -2.406,0.638 -3.514,1.222c-0.283,0.144 -0.224,1.129 -0.148,1.708c0.085,0.656 0.233,1.366 0.579,1.912c3.637,5.683 6.843,11.726 11.088,16.919c7.718,9.443 15.524,18.725 19.786,30.379c11.131,18.48 21.157,37.594 33.37,55.473c7.573,11.088 13.367,23.389 19.963,35.145c3.544,13.684 10.906,26.079 13.148,40.266c1.256,7.942 5.937,15.029 7.015,23.182c0.245,1.852 1.531,3.878 2.922,5.219c5.992,5.768 4.618,13.895 6.749,20.847c0.918,3.003 -1.209,6.568 -3.48,9.198c-4.973,5.755 -11.764,8.948 -18.226,12.563c-1.112,0.626 -2.613,0.715 -3.945,0.762c-6.749,0.249 -13.507,0.317 -20.252,0.613c-6.389,0.275 -11.616,-3.379 -17.367,-5.125c-24.028,-7.312 -33.957,-11.993 -58.184,-27.737c-11.857,-7.713 -24.395,-14.318 -35.487,-23.376c-7.21,-5.887 -15.778,-10.416 -25.005,-13.05c-0.6,-0.174 -1.603,-0.131 -1.954,0.245c-0.782,0.841 -1.957,2.106 -1.776,2.939c1.417,6.567 3.231,12.982 3.506,19.837c0.245,6.081 3.112,11.705 5.722,17.207c1.763,3.73 2.702,7.252 1.226,11.54c-0.766,2.22 0.473,5.197 1.015,7.789c2.622,12.526 5.294,25.039 8.001,37.547c0.731,3.396 0.444,6.618 -0.639,9.934c-2.533,7.747 -3.7,15.608 -1.78,23.757c1.86,7.891 -0.761,16.166 1.932,24.095c0.508,1.493 -0.71,3.942 -1.78,5.515c-2.004,2.955 -3.244,5.751 -1.738,9.354c1.653,3.962 1.247,7.962 -0.664,11.756c-1.81,3.598 -4.512,6.939 -5.455,10.732c-0.935,3.772 -0.059,7.971 -0.199,11.976c-0.067,2.009 -0.693,3.996 -0.922,6.009c-0.063,0.575 0.334,1.708 0.592,1.73c1.159,0.088 2.593,0.27 3.481,-0.292c6.859,-4.343 13.836,-8.251 22.171,-9.054c1.954,-0.19 4.051,-0.88 5.696,-1.937c5.726,-3.67 12.022,-5.916 18.264,-8.478c5.552,-2.284 11.363,-4.682 16.285,-7.9c6.5,-4.245 14.128,-4.317 20.645,-7.747c5.992,-3.154 12.001,-6.191 18.805,-7.256c1.294,-0.203 2.601,-0.8 3.725,-1.493c2.846,-1.751 5.358,-4.512 8.42,-5.341c8.445,-2.288 16.564,-5.506 24.924,-7.988c1.273,-0.381 2.897,0.093 3.992,-0.499c9.502,-5.168 19.486,-9.088 29.893,-11.967c7.261,-5.718 16.513,-5.527 24.814,-8.077c3.789,-1.163 7.895,-1.459 11.583,-3.273c10.94,-5.379 22.696,-8.585 34.105,-12.708c3.163,-1.142 6.415,-2.114 9.421,-3.586c4.238,-2.076 8.048,-5.442 12.475,-6.601c4.61,-1.205 8.547,-3.552 12.818,-5.062c6.423,-2.271 12.009,-6.212 18.445,-8.216c5.79,-1.806 11.604,-3.738 17.55,-4.77c6.076,-1.057 11.781,-2.618 17.113,-5.777c6.445,-3.827 13.524,-5.971 20.802,-7.785c11.138,-2.778 22.082,-6.318 33.2,-9.197c5.861,-1.523 11.916,-2.271 17.866,-3.464c21.846,-4.381 43.569,-9.421 65.732,-12.064c8.385,-3.726 17.418,-1.421 26.053,-2.825c3.358,-0.546 6.796,-1.205 9.73,1.053c3.823,2.943 6.881,6.622 7.895,11.456c0.69,3.273 0.216,6.854 1.214,9.996c3.755,11.807 1.759,24.037 3.083,36.004c0.368,3.319 -0.368,6.825 0.376,10.018c1.687,7.231 4.026,14.318 1.476,21.799c1.455,12.031 2.706,24.087 4.487,36.067c0.617,4.136 0.676,7.887 -0.656,11.879c-0.82,2.456 -1.015,5.332 -0.689,7.92c2.343,18.784 3.024,37.619 2.182,56.521c-0.419,9.418 0.076,18.831 -0.533,28.282c-0.457,7.088 -1.814,13.224 -6.326,18.67c-1.286,1.552 -2.326,3.341 -3.252,5.138c-1.29,2.495 -1.438,4.99 0.08,7.616c1.332,2.305 2.563,4.77 3.24,7.324c1.044,3.95 -3.43,12.509 -7.193,13.528c-7.143,1.941 -14.133,4.779 -21.702,4.707c-10.183,-0.093 -20.193,1.328 -30.16,3.205c-2.655,0.499 -5.383,1.184 -8.039,1.04c-26.45,-1.404 -52.449,4.377 -78.781,4.902c-5.358,0.105 -10.741,0.401 -16.048,1.97c-3.806,1.125 -7.976,1.049 -11.997,1.387c-1.328,0.11 -2.694,-0.313 -4.03,-0.237c-9.337,0.512 -18.429,2.745 -28.003,2.216c-10.026,-0.554 -20.091,2.047 -30.274,1.979c-9.417,-0.067 -18.856,-0.051 -28.269,0.833c-5.341,0.499 -10.656,0.191 -15.925,2.195c-3.671,1.396 -7.984,1.565 -11.997,1.51c-6.157,-0.081 -12.065,1.213 -18.087,2.013c-7.315,0.976 -14.741,1.108 -22.091,1.873c-9.337,0.973 -18.695,1.907 -28.028,2.837c-8.61,0.859 -17.397,0.22 -26.104,1.29c-9.32,1.142 -18.53,3.083 -28.024,3.1c-8.749,0.017 -17.498,0.93 -26.248,1.463c-2.702,0.165 -5.37,0.491 -7.243,2.778c-0.394,0.478 -0.859,1.286 -0.698,1.73c0.186,0.52 0.964,0.96 1.577,1.184c3.59,1.311 6.479,-0.571 9.447,-2.14c2.588,-1.374 5.015,-1.332 7.375,0.698c0.994,0.85 2.432,1.92 3.54,1.789c10.846,-1.277 20.932,4.858 31.783,3.137c5.442,2.144 10.644,-1.074 16.044,-0.727c5.599,0.368 9.527,5.007 15.037,5.455c2.013,0.169 4.157,1.184 5.98,0.74c7.049,-1.725 13.231,1.463 19.811,2.639c6.525,1.163 12.441,6 19.592,3.522c5.975,1.058 11.912,2.525 17.934,3.024c4.111,0.343 7.785,0.973 11.507,2.952c4.216,2.241 9.058,2.334 13.849,1.759c4.821,-0.58 9.261,0.402 13.608,2.799c10.661,5.891 21.647,11.025 34.134,11.68c0.664,0.034 1.387,0.131 1.967,0.431c13.811,7.164 29.453,9.811 43.044,17.617c5.836,3.354 12.225,5.726 18.311,8.661c3.67,1.772 6.909,4.144 9.688,7.218c3.679,4.068 3.776,11.338 -0.436,14.48c-3.763,2.807 -7.65,6.195 -11.997,7.315c-9.899,2.546 -18.978,7.037 -28.43,10.589c-7.003,2.635 -14.153,4.495 -21.401,5.92c-11.887,2.339 -23.884,4.106 -35.801,6.284c-0.994,0.182 -1.916,1.552 -2.588,2.563c-0.913,1.378 -0.419,2.592 1.083,3.404c0.583,0.317 1.116,0.736 1.721,0.994c3.108,1.319 6.14,2.934 9.371,3.835c6.47,1.806 12.605,4.931 19.49,5.176c5.649,3.662 11.472,7.037 17.689,9.625c3.07,1.281 6.356,2.038 9.544,3.04c1.281,0.402 2.825,0.491 3.802,1.277c10.512,8.471 23.254,13.786 32.887,23.546c4.11,4.165 6.085,8.821 5.882,14.5c-0.097,2.698 -0.432,5.388 -0.757,8.069c-1.18,9.696 -7.282,15.646 -15.414,19.976c-1.167,0.622 -2.558,1.125 -3.857,1.155c-18.665,0.431 -37.369,5.159 -56.014,-0.681c-2.393,-0.748 -5.345,0.228 -8.034,0.465c-2.664,0.237 -3.59,1.831 -2.191,3.717c4.022,5.409 8.06,10.805 12.09,16.209c0.795,1.07 1.4,2.339 2.373,3.21c21.308,19.131 29.491,33.906 40.761,54.208c1.243,2.233 1.716,5.18 1.674,7.785c-0.165,10.462 -3.4,19.951 -10.369,27.885c-3.641,4.144 -8.039,6.964 -13.946,7.298c-12.082,0.681 -24.079,2.187 -36.135,-1.108c-3.239,-0.883 -6.208,-1.902 -9.278,-3.226c-8.626,-3.726 -17.456,-6.994 -26.281,-10.225c-0.91,-0.33 -2.703,0.503 -3.451,1.357c-0.736,0.829 -1.18,2.546 -0.837,3.569c0.837,2.495 1.869,5.062 3.433,7.143c2.381,3.163 6.711,4.689 7.794,9.032c4.876,4.474 6.61,9.76 5.036,16.374c-0.592,2.482 -0.469,5.637 0.588,7.904c2.241,4.82 1.053,9.235 -0.279,13.777c-2.321,7.929 -6.199,15.003 -12.297,20.628c-3.967,3.653 -8.225,7.011 -12.526,10.271c-1.577,1.193 -3.598,1.683 -5.742,0.914c-4.436,-1.603 -8.931,-3.045 -13.38,-4.61c-10.238,-3.607 -19.989,-8.098 -28.849,-14.521c-12.001,-8.703 -24.903,-15.981 -38.003,-22.882c-0.389,-0.203 -1.26,0.186 -1.717,0.541c-0.423,0.33 -0.969,1.167 -0.821,1.472c5.007,10.276 8.526,21.376 16.404,30.092c0.452,0.499 0.875,1.053 1.18,1.645c2.774,5.417 4.452,11.159 6.161,17.008c1.641,5.603 7.248,9.658 8.077,16.027c0.786,6.017 2.985,11.62 4.901,17.346c1.459,4.364 1.34,9.295 1.687,13.989c0.647,8.808 -3.286,15.671 -9.624,21.351c-4.728,4.233 -10.221,6.432 -16.704,5.865c-6.119,-0.533 -12.069,-1.159 -16.568,-6.242c-1.21,-1.366 -3.442,-2.131 -5.341,-2.524c-3.557,-0.736 -6.098,-2.711 -8.212,-5.46c-0.825,-1.069 -1.476,-2.3 -2.423,-3.247c-10.522,-10.53 -20.231,-21.647 -27.428,-34.837c-1.552,-2.846 -4.567,-4.905 -6.969,-7.265c-0.33,-0.321 -1.171,-0.528 -1.514,-0.334c-0.516,0.292 -1.154,1.011 -1.129,1.514c0.271,4.686 0.49,9.388 1.07,14.044c1.091,8.783 1.696,17.443 -1.924,25.905c-0.753,1.759 -0.491,4.001 -0.499,6.018c-0.009,3.497 -1.049,6.596 -2.956,9.514c-1.476,2.254 -2.994,4.55 -4.001,7.029c-4.076,10.022 -12.72,13.337 -22.23,15.409c-1.281,0.279 -2.778,0.355 -4,-0.025c-4.496,-1.408 -8.953,-2.96 -13.351,-4.656c-1.184,-0.457 -2.402,-1.425 -3.087,-2.491c-5.142,-7.996 -13.409,-13.388 -18.073,-21.769c-5.43,-4.026 -10.145,-8.712 -13.52,-14.645c-2.334,-4.102 -4.926,-8.055 -4.313,-13.176c0.144,-1.206 -0.317,-3.071 -1.18,-3.709c-6.089,-4.499 -6.169,-11.485 -8.06,-17.833c-1.133,-3.806 -3.307,-7.366 -5.408,-10.796c-3.172,-5.167 -6.716,-10.106 -10.039,-15.181c-1.091,-1.662 -2.834,-3.438 -2.851,-5.176c-0.067,-6.423 -3.404,-11.477 -5.806,-17.042c-2.106,-4.867 -2.507,-10.39 -5.937,-14.876c-1.103,-1.451 -1.023,-3.87 -1.302,-5.87c-0.673,-4.884 -2.753,-8.986 -6.381,-12.335c-5.168,-4.774 -7.781,-10.839 -9.367,-17.6c-1.374,-5.866 -3.299,-11.612 -5.168,-17.347c-0.609,-1.864 -1.416,-3.996 -2.824,-5.201c-3.95,-3.383 -4.969,-7.844 -5.747,-12.576c-0.212,-1.29 -0.635,-2.982 -1.561,-3.645c-6.106,-4.348 -6.423,-11.524 -9.015,-17.596c-1.307,-3.07 -2.605,-6.242 -4.542,-8.91c-1.599,-2.195 -3.404,-4.157 -3.924,-6.902c-1.366,-7.18 -7.244,-12.69 -7.278,-20.45c-0.017,-3.992 -0.584,-8.047 -2.88,-11.654c-3.675,-5.777 -5.95,-12.044 -6.182,-18.996c-0.119,-3.51 -2.25,-6.258 -3.874,-9.223c-2.613,-4.774 -4.571,-9.751 -3.742,-15.468c0.499,-3.443 -0.508,-6.724 -2.546,-9.57c-4.783,-6.665 -8.288,-13.858 -9.422,-22.074c-0.093,-0.668 -0.025,-1.493 -0.393,-1.967c-5.535,-7.1 -7.409,-15.629 -9.544,-24.065c-3.836,-4.356 -3.743,-10.065 -4.918,-15.228c-3.451,-15.147 -7.447,-30.054 -13.452,-44.457c-2.546,-6.106 -4.757,-12.411 -4.914,-19.482c-0.126,-5.882 -2.706,-11.713 -4.233,-17.557c-0.342,-1.316 -3.277,-3.202 -4.884,-2.931c-11.426,1.949 -22.712,0.584 -34.024,-1.112c-8.065,-1.21 -16.12,0.406 -24.185,0.537c-2.668,0.042 -5.911,0.985 -7.899,-0.178c-7.349,-4.3 -15.71,-3.142 -23.288,-5.248c-7.184,-1.996 -14.58,-2.617 -21.659,-4.774c-4.44,-1.353 -8.906,-2.093 -13.008,-4.998c-3.687,-2.618 -8.736,-3.294 -13.16,-4.897c-9.476,-3.434 -19.355,-5.861 -27.922,-11.574c-3.984,-2.66 -8.58,-4.161 -13.371,-4.352c-4.348,-0.169 -7.718,-1.75 -10.691,-4.867c-1.328,-1.395 -3.273,-2.981 -5.007,-3.066c-5.814,-0.279 -9.907,-3.628 -14.449,-6.563c-6.787,-4.389 -14.226,-7.793 -20.878,-12.356c-5.463,-3.747 -12.419,-5.379 -16.327,-11.502c-0.96,-1.514 -3.188,-2.508 -5.04,-3.117c-11.596,-3.806 -21.508,-11.151 -32.845,-15.469c-1.95,-0.74 -3.193,-2.123 -4.212,-4.009c-2.617,-4.858 -6.741,-8.322 -11.181,-11.498c-5.48,-3.924 -10.863,-7.992 -16.192,-12.115c-5.353,-4.144 -10.195,-8.787 -14.703,-13.891c-4.816,-5.464 -8.517,-12.23 -16.128,-14.864c-1.696,-0.588 -3.096,-2.605 -4.191,-4.254c-5.299,-7.997 -14.598,-11.875 -20.133,-19.639c-0.634,-0.888 -2.427,-0.968 -3.692,-1.387c-2.677,-0.884 -4.757,-2.389 -5.827,-5.129c-0.973,-2.491 -1.89,-5.028 -3.146,-7.379c-2.542,-4.758 -4.681,-9.921 -8.124,-13.947c-3.869,-4.533 -9.688,-7.265 -12.944,-12.585c-6.39,-1.184 -7.654,-6.402 -9.988,-11.421c-3.1,-6.657 -7.468,-12.805 -14.792,-15.808c-0.504,-0.207 -1.341,-0.114 -1.781,0.187c-0.511,0.355 -1.171,1.188 -1.061,1.649c3.624,15.304 2.491,30.857 2.317,46.338c-0.05,4.682 -0.71,9.443 -1.759,14.014c-2.127,9.236 -4.102,18.476 -4.795,27.94c-0.368,5.007 -2.889,8.889 -5.946,12.585c-4.926,5.954 -11.625,9.269 -18.594,11.836c-3.027,1.116 -6.711,1.036 -10.013,0.702c-8.885,-0.893 -17.139,-3.599 -23.601,-10.196c-3.772,-3.844 -7.498,-7.599 -12.031,-10.707c-4.339,-2.973 -7.332,-7.929 -11.701,-10.83c-4.237,-2.816 -5.18,-8.242 -9.235,-10.487c-5.143,-2.846 -7.912,-6.961 -9.946,-12.153c-0.956,-2.44 -2.563,-4.792 -4.386,-6.699c-6.605,-6.905 -12.55,-14.069 -14.217,-23.947c-0.296,-1.751 -2.08,-3.307 -3.332,-4.825c-13.684,-16.666 -16.606,-21.279 -24.882,-43.387c-5.218,-13.942 -10.855,-27.559 -19.262,-39.979c-4.571,-6.749 -7.163,-14.475 -8.533,-22.607c-0.292,-1.725 -2.132,-3.243 -3.426,-4.715c-0.33,-0.376 -1.315,-0.342 -1.953,-0.232c-0.474,0.08 -1.21,0.537 -1.265,0.909c-1.268,8.694 -1.687,17.414 -0.926,26.189c1.569,18.149 0.161,36.329 0.393,54.495c0.098,7.413 -0.866,14.835 -1.141,22.261c-0.423,11.493 -2.275,22.826 -3.98,34.151c-1.594,10.58 -2.478,21.309 -6.131,31.551c-1.332,3.729 -0.8,8.119 -2.089,11.874c-2.652,7.713 -3.671,15.718 -5.164,23.643c-5.074,6.58 -6.778,14.652 -9.933,22.087c-1.019,2.402 -2.715,4.787 -4.715,6.436c-3.62,2.981 -7.548,5.666 -11.629,7.988c-4.829,2.749 -10.124,3.163 -15.714,2.546c-8.178,-0.91 -15.596,-4.276 -23.41,-6.339c-4.66,-4.483 -12.23,-6.441 -12.661,-14.611c-0.034,-0.634 -0.364,-1.319 -0.732,-1.865c-6.039,-8.939 -11.752,-18.132 -18.298,-26.687c-4.097,-5.354 -8.876,-10.162 -11.899,-16.298c-2.965,-6.005 -5.202,-12.339 -7.604,-18.547c-1.958,-5.062 -4.14,-9.929 -6.656,-14.695c-2.82,-5.332 -6.736,-10.259 -6.11,-16.856c0.059,-0.613 -0.186,-1.459 -0.609,-1.886c-8.263,-8.381 -6.2,-20.222 -10.132,-30.041c-0.14,-6.926 -3.396,-12.986 -5.468,-19.363c-1.028,-3.18 -2.884,-6.115 -3.73,-9.329c-1.886,-7.138 -2.926,-14.521 -5.142,-21.545c-2.017,-6.407 -5.595,-12.268 -6.905,-19c-0.504,-2.588 -1.755,-5.062 -2.863,-7.498c-2.812,-6.178 -5.1,-12.453 -5.329,-19.367c-0.038,-1.125 -1.108,-2.466 -2.072,-3.248c-0.968,-0.782 -2.38,-1.078 -3.649,-1.362c-0.241,-0.055 -0.905,0.897 -1.049,1.468c-0.482,1.936 -1.188,3.92 -1.137,5.865c0.148,5.413 0.181,10.64 -1.764,15.947c-1.353,3.691 -1.408,7.958 -1.522,11.984c-0.326,11.494 -0.499,22.975 -4.03,34.079c-0.173,14.154 -3.891,27.889 -4.914,41.945c-0.241,3.337 -0.237,6.91 -1.463,9.921c-2.453,6.034 -2.389,11.743 -0.042,17.693c1.015,2.567 0.503,5.218 -0.267,7.904c-0.917,3.197 -2.144,6.639 -1.78,9.806c1.442,12.572 -2.668,23.918 -6.525,35.471c-2.119,6.351 -5.104,12.339 -6.711,18.978c-1.383,5.701 -5.337,10.839 -8.449,16.049c-6.424,10.749 -15.875,16.314 -28.557,15.785c-1.966,-0.084 -4.161,-0.41 -5.819,-1.37c-6.275,-3.628 -14.124,-4.837 -18.348,-11.671c-14.509,-11.819 -22.924,-28.172 -32.549,-43.628c-5.04,-13.98 -12.733,-26.768 -18.268,-40.528c-1.763,-4.373 -3.717,-8.665 -5.561,-13.004c-0.786,-1.856 -2.034,-3.704 -2.169,-5.616c-0.774,-11.024 -5.286,-20.801 -9.561,-30.73c-2.669,-6.191 -4.339,-12.741 -5.193,-19.503c-0.592,-4.677 -1.163,-9.515 -2.821,-13.87c-8.22,-21.592 -11.549,-44.372 -16.784,-66.688c-0.237,-0.997 -1.408,-2.393 -2.262,-2.482c-1.171,-0.122 -2.829,0.495 -3.616,1.383c-1.763,1.996 -3.548,4.178 -4.55,6.601c-1.81,4.36 -3.493,8.859 -4.427,13.464c-1.65,8.115 -4.838,15.41 -9.904,21.893c-4.241,5.425 -6.656,11.341 -7.959,18.268c-1.725,9.185 -4.727,18.12 -9.891,26.307c-3.18,5.045 -5.163,11.007 -6.842,16.805c-3.603,12.462 -9.464,23.749 -16.517,34.515c-1.108,1.687 -2.394,3.366 -3.028,5.239c-3.962,11.714 -12.614,20.637 -18.412,31.255c-3.662,6.707 -9.713,11.24 -15.879,15.384c-2.711,1.819 -6.178,2.677 -9.417,3.51c-5.329,1.379 -10.767,-0.013 -16.103,0.14c-9.824,0.279 -16.649,-3.404 -21.808,-11.735c-10.314,-16.649 -19.879,-33.517 -25.148,-52.644c-1.823,-6.622 0.359,-13.498 -2.855,-19.871c-3.057,-6.059 -4.364,-12.754 -5.197,-19.482c-0.664,-5.353 -1.146,-10.728 -1.894,-16.065c-0.749,-5.34 -1.417,-10.719 -2.703,-15.942c-1.146,-4.668 -1.818,-9.189 -0.993,-13.989c0.816,-4.732 0.351,-9.552 -1.531,-13.942c-2.74,-6.398 -2.871,-12.974 -3.184,-19.786c-0.58,-12.737 -1.696,-25.516 -3.624,-38.118c-2.868,-18.712 -3.113,-37.594 -4.83,-56.373c-0.059,-0.631 -0.423,-1.409 -0.909,-1.76c-0.338,-0.249 -1.429,-0.114 -1.662,0.216c-9.282,13.211 -20.412,24.962 -29.905,38c-1.189,1.632 -1.696,3.886 -3.126,5.184c-12.576,11.392 -20.551,26.612 -32.4,38.6c-11.359,11.494 -21.292,24.349 -33.606,34.946c-2.512,2.161 -4.444,4.995 -6.639,7.523c-1.324,1.518 -2.394,3.413 -4.005,4.504c-11.853,8.035 -21.021,18.886 -30.963,28.946c-6.169,6.233 -12.779,11.976 -20.048,17.02c-9.325,6.47 -18.835,12.721 -26.865,20.941c-4.293,4.39 -9.557,7.498 -16.091,7.646c-1.307,0.034 -2.622,0.617 -3.89,1.078c-9.76,3.527 -18.662,1.129 -26.975,-4.186c-5.955,-3.815 -10.137,-8.923 -9.908,-16.556c0.038,-1.349 -0.03,-2.702 -0.034,-4.055c-0.017,-5.426 -3.963,-10.077 -2.939,-15.757c1.306,-7.277 1.734,-14.779 3.734,-21.85c1.848,-6.554 3.201,-13.037 3.332,-19.811c4.44,-8.09 0.613,-17.579 4.148,-25.681c3.333,-7.642 3.197,-15.778 4.817,-23.643c1.763,-8.547 4.728,-16.915 7.878,-25.085c1.544,-3.996 2.732,-7.515 0.787,-11.541c-0.288,-0.596 -0.698,-1.518 -0.453,-1.928c3.544,-5.916 2.123,-13.27 5.498,-19.165c3.349,-5.856 4.465,-12.525 7.036,-18.568c2.884,-6.774 4.191,-14.061 8.056,-20.611c3.637,-6.165 6.483,-13.215 4.994,-21.055c-0.325,-1.7 0.918,-3.78 1.683,-5.586c5.235,-12.373 10.619,-24.687 15.773,-37.099c1.544,-3.713 2.512,-7.667 3.734,-11.51c0.482,-1.514 0.119,-2.775 -1.196,-3.523c-0.461,-0.266 -1.252,-0.262 -1.772,-0.068c-7.105,2.622 -13.278,6.475 -17.803,12.775c-2.762,3.84 -5.76,7.684 -10.479,9.266c-5.514,1.848 -9.367,5.51 -11.625,10.614c-1.789,4.034 -4.897,6.542 -8.462,8.373c-6.711,3.446 -12.593,7.848 -17.807,13.253c-1.4,1.45 -3.002,2.748 -4.652,3.915c-30.294,21.457 -58.948,45.24 -90.947,64.29c-9.287,5.527 -18.438,11.274 -27.711,16.822c-5.802,3.472 -11.253,7.426 -16.788,11.287c-6.576,4.583 -13.084,9.658 -21.076,11.865c-6.648,1.836 -11.951,6.234 -17.939,9.325c-7.189,3.717 -14.301,7.582 -21.494,11.286c-1.789,0.922 -3.734,1.552 -5.646,2.199c-2.558,0.863 -5.205,2.415 -7.73,2.263c-10.322,-0.622 -19.698,4.744 -29.94,4.317c-12.631,-0.528 -23.867,-3.928 -32.345,-14.145c-4.736,-5.705 -10.162,-10.834 -15.059,-16.42c-3.142,-3.586 -5.358,-7.642 -5.556,-12.72c-0.127,-3.29 -1.151,-6.559 -1.865,-9.815c-2.681,-12.217 -0.715,-24.138 2.507,-35.915c0.69,-2.512 2.22,-4.969 3.908,-6.999c4.199,-5.049 5.611,-10.648 4.524,-17.037c-0.473,-2.8 0.28,-5.561 2.081,-7.582c4.614,-5.164 6.931,-11.426 9.646,-17.622c3.501,-7.988 7.755,-15.65 11.811,-23.389c0.587,-1.12 1.75,-2.427 2.871,-2.689c6.051,-1.434 7.827,-6.682 11.012,-11.003c7.595,-10.306 15.798,-20.176 23.985,-30.029c3.886,-4.677 8.191,-8.956 10.826,-14.593c0.795,-1.709 2.431,-3.417 4.119,-4.254c8.537,-4.25 14.682,-11.697 22.86,-16.535c6.322,-3.738 10.229,-10.635 15.68,-15.604c5.46,-4.973 12.04,-8.758 17.279,-13.925c3.298,-3.256 5.827,-7.172 9.845,-9.946c3.772,-2.609 7.142,-6.034 10.017,-9.633c2.669,-3.345 5.574,-5.362 9.782,-6.424c6.66,-1.683 11.328,-6.947 16.847,-10.69c2.055,-4.694 6.516,-6.669 10.483,-9.168c2.275,-1.438 5.307,-2.148 6.927,-4.081c6.368,-7.611 15.388,-10.58 23.909,-14.428c4.398,-1.988 8.61,-4.389 11.181,-8.403c2.863,-4.461 7.299,-5.67 11.65,-7.421c2.44,-0.985 4.339,-3.713 3.375,-4.453c-0.943,-0.723 -2.043,-1.725 -3.092,-1.751c-14.826,-0.317 -29.597,-2 -44.499,-0.79c-8.026,0.651 -16.34,0.452 -24.252,-0.926c-9.447,-1.641 -18.889,-0.943 -28.298,-1.751c-2.665,-0.229 -5.409,0.051 -8.082,0.359c-19.638,2.267 -23.292,2.051 -42.342,0.897c-16.179,-0.986 -32.409,-1.218 -48.622,-1.649c-11.511,-0.305 -22.962,-0.935 -34.346,-2.851c-7.46,-1.251 -14.264,-3.818 -20.759,-7.675c-10.365,-6.153 -17.071,-14.91 -21.182,-26.197c-2.292,-6.292 -1.979,-11.908 1.239,-17.469c2.022,-3.493 3.954,-7.269 6.817,-9.984c3.133,-2.969 4.711,-6.428 6.165,-10.234c1.958,-5.129 5.481,-9.079 9.299,-13.058c8.521,-8.876 19.821,-13.967 28.836,-22.108c1.455,-1.311 3.523,-1.983 5.367,-2.829c5.518,-2.524 12.221,-0.972 17.321,-5.066c4.419,-3.544 9.836,-4.148 15.189,-5.07c2.592,-0.444 5.07,-1.649 7.553,-2.639c13.794,-5.506 27.554,-11.096 41.37,-16.543c3.767,-1.484 7.772,-3.831 11.531,-3.594c14.712,0.913 26.823,-8.817 41.074,-9.316c0.656,-0.025 1.337,-0.275 1.95,-0.546c7.996,-3.509 15.709,-7.172 24.945,-7.404c8.686,-0.22 17.287,-2.774 25.973,-3.958c13.414,-1.827 26.76,-3.882 39.146,-9.693c4.478,-2.101 9.125,-2.503 13.844,-2.334c6.745,0.237 13.253,0.41 19.787,-2.41c4.199,-1.814 9.189,-2.263 13.857,-2.415c14.175,-0.469 28.189,-1.522 41.582,-6.757c1.822,-0.715 3.958,-0.74 5.962,-0.85c8.754,-0.482 17.558,-0.313 26.02,-3.32c1.822,-0.651 4.013,-0.435 6.021,-0.359c9.515,0.359 18.84,-0.131 27.944,-3.548c2.998,-1.129 6.635,-0.706 9.98,-0.745c10.804,-0.122 21.617,0.17 32.401,-0.321c4.638,-0.211 9.193,-2.727 13.806,-2.804c6.196,-0.097 12.137,-0.389 17.677,-3.395c14.745,-2.436 29.432,-3.853 43.979,1.34c3.801,1.358 7.831,2.779 11.785,2.867c12.72,0.279 23.584,5.925 34.177,11.731c13.046,7.146 26.7,12.94 39.936,19.63c4.817,2.431 9.502,5.117 14.251,7.688c3.539,1.915 7.096,3.814 10.627,5.751c5.912,3.243 12.441,5.755 17.549,9.975c5.269,4.364 13.08,4.36 16.924,10.661c8.791,4.969 17.118,10.665 26.028,15.515c14.162,7.709 29.106,13.993 42.329,23.567c7.016,5.083 15.296,8.534 23.246,12.196c10.39,4.783 20.822,9.366 30.328,15.883c4.428,3.04 9.494,5.155 14.247,7.73c2.372,1.286 5.062,2.263 6.973,4.06c8.978,8.423 20.184,13.371 30.375,19.892c9.646,6.174 19.258,12.398 29.052,18.323c6.351,3.84 12.843,7.527 19.554,10.678c17.714,8.317 35.301,16.826 52.005,27.089c3.992,2.453 8.474,4.11 12.762,6.081c3.066,1.408 6.204,2.668 9.269,4.085c30.447,14.069 30.494,13.912 63.939,24.636c11.54,3.696 22.912,7.76 33.729,13.668c9.333,5.091 19.088,10.161 30.138,11.236c1.911,0.186 3.983,0.786 5.578,1.818c4.123,2.664 8.681,3.446 13.375,4.305c5.925,1.087 11.697,3.996 17.566,4.089c9.701,0.148 18.628,2.465 27.513,5.836c2.486,0.943 5.222,1.64 7.861,1.717c9.498,0.279 18.205,5.505 27.889,4.292c0.613,-0.076 1.644,-0.635 1.649,-0.981c0.025,-1.146 0.004,-2.542 -0.609,-3.409c-2.872,-4.072 -7.028,-6.402 -11.841,-7.117c-4.347,-0.642 -7.21,-2.753 -9.802,-6.25c-4.144,-5.59 -9.532,-9.341 -16.983,-9.789c-2.44,-0.148 -5.083,-1.819 -7.087,-3.459c-7.32,-5.98 -14.458,-12.183 -21.562,-18.425c-3.582,-3.151 -7.303,-5.586 -12.065,-6.978c-4.402,-1.285 -8.868,-3.581 -10.437,-8.757c-9.548,-8.496 -19.037,-17.055 -28.658,-25.462c-9.667,-8.444 -19.608,-16.58 -29.153,-25.156c-5.045,-4.534 -10.073,-9.003 -15.862,-12.572c-1.721,-1.058 -3.751,-1.967 -4.935,-3.489c-9.671,-12.386 -23.786,-19.985 -34.028,-31.737c-0.884,-1.019 -1.793,-2.119 -2.918,-2.808c-12.154,-7.417 -22.087,-17.731 -33.758,-25.732c-3.946,-2.706 -7.346,-5.582 -10.382,-9.286c-13.748,-16.754 -30.155,-30.845 -46.533,-44.867c-6.686,-5.726 -11.418,-13.143 -18.399,-18.585c-6.881,-5.371 -13.418,-11.367 -19.245,-17.863c-9.431,-10.517 -20.561,-19.608 -27.695,-32.109c-14.627,-15.917 -28.307,-32.603 -41.479,-49.742c-4.068,-5.295 -9.333,-9.676 -14.052,-14.471c-2.61,-9.054 -5.253,-18.095 -7.794,-27.166c-0.351,-1.26 -0.169,-2.668 -0.262,-4.008c-0.123,-1.726 3.725,-5.498 5.531,-5.155c2.63,0.503 5.658,0.651 7.717,2.093c5.883,4.119 12.302,4.508 19.178,5.045c17.481,1.37 34.976,2.186 52.479,3.023c1.987,0.093 4.144,0.343 5.886,1.201c5.692,2.804 11.697,3.362 17.811,2.766c6.826,-0.664 13.021,3.878 19.909,2.148c10.665,1.535 21.326,3.129 32.012,4.504c1.015,0.131 2.305,-1.007 3.269,-1.797c0.309,-0.25 0.19,-1.404 -0.106,-1.937c-2.579,-4.69 -3.869,-10.09 -7.865,-13.993c-6.893,-6.732 -10.978,-15.325 -15.575,-23.58c-3.269,-5.873 -5.895,-12.174 -11.912,-16.111c-1.569,-1.024 -2.563,-3.066 -3.573,-4.783c-4.102,-6.965 -8.213,-13.887 -14.991,-18.733c-1.015,-0.723 -2.111,-2.047 -2.233,-3.193c-0.774,-7.299 -7.853,-10.965 -9.95,-17.042c-2.305,-6.673 -9.968,-9.548 -10.547,-16.932c-3.928,-6.279 -7.853,-12.555 -11.777,-18.835c-3.573,-5.721 -7.193,-11.413 -10.703,-17.173c-5.252,-8.618 -9.515,-17.811 -15.697,-25.905c-1.983,-2.596 -3.057,-6.009 -4.077,-9.197c-1.454,-4.555 -3.328,-8.834 -6.161,-12.699c-0.795,-1.087 -1.932,-2.22 -2.085,-3.434c-1.7,-13.76 -12.018,-24.142 -14.623,-37.522c-6.203,-7.929 -6.191,-17.591 -7.294,-26.882c-0.389,-3.298 0.211,-6.728 0.49,-10.085c0.212,-2.529 2.605,-5.223 4.923,-5.832c7.941,-2.072 15.895,-2.93 23.989,-0.715c5.849,1.603 11.946,2.478 17.583,4.61c8.817,3.332 17.364,7.4 25.973,11.278c2.453,1.104 5.028,2.271 7.012,4.021c5.692,5.011 13.037,7.024 19.173,10.982c5.886,3.794 12.276,5.371 18.585,7.659c6.935,2.52 13.6,5.586 21.009,6.943c4.503,0.825 8.948,3.117 12.893,5.586c7.523,4.716 15.718,7.557 24.167,9.735c3.345,0.859 6.335,2.106 9.274,3.819c1.691,0.985 3.704,1.991 5.582,2.008c10.707,0.093 19.004,6.217 27.939,10.754c1.789,0.909 3.387,2.415 5.265,2.884c3.907,0.977 8.132,0.922 11.879,2.262c3.691,1.324 5.497,5.764 9.861,6.682c9.214,1.932 16.247,9.844 26.248,9.764c4.246,2.089 8.563,4.051 12.724,6.297c5.95,3.205 11.756,6.651 18.319,8.597c2.567,0.757 5.218,1.81 7.341,3.391c9.291,6.927 20.628,9.697 30.536,15.355c3.205,1.835 6.576,1.032 9.384,-1.32c4.127,-3.463 8.728,-6.571 12.098,-10.677c4.525,-5.515 10.936,-7.481 16.598,-10.923c4.685,-2.846 10.876,-1.624 14.847,-5.887c3.518,-3.784 8.627,-3.543 12.877,-5.425c3.036,-1.345 6.013,-3.104 8.533,-5.244c6.221,-5.286 13.291,-9.028 20.353,-13.003c6.72,-3.785 14.154,-4.216 21.093,-6.673c1.21,-0.423 2.745,-0.372 4.022,-0.072c7.222,1.7 14.492,3.29 21.592,5.421c5.895,1.772 11.142,5.219 15.435,9.498c8.677,8.656 19.676,14.23 28.7,22.37c5.176,1.967 9.003,5.426 12.627,9.663c4.436,5.176 10.741,8.039 17.093,10.567c2.465,0.986 5.594,2.051 6.812,4.056c2.91,4.77 6.212,8.791 11.574,10.555c5.468,1.797 6.902,8.398 12.42,10.035c0.622,0.186 1.214,0.642 1.696,1.099c5.349,5.108 10.538,10.399 16.048,15.329c5.523,4.944 11.346,9.549 17.067,14.272c2.588,2.14 4.956,5.337 7.921,6.081c8.313,2.089 14.048,7.933 19.964,13.114c5.125,4.486 11.819,6.216 16.492,11.544c3.903,4.457 9.958,6.956 14.445,10.999c8.47,7.633 18.353,13.566 25.817,22.472c3.357,4.009 8.043,7.269 12.732,9.722c11.503,6.021 16.264,17.511 23.284,27.186c0.765,1.057 1.493,2.491 1.463,3.73c-0.186,7.561 3.59,14.445 3.781,21.829c0.177,6.846 1.695,13.329 3.175,19.917c2.944,13.147 3.658,26.646 5.98,39.894c0.698,3.967 1.349,7.988 2.567,11.811c3.679,11.561 7.781,22.983 11.409,34.557c2.03,6.475 4.605,12.67 7.426,18.818c2.249,4.901 4.123,9.98 5.954,15.055c2.706,7.493 2.355,15.676 6.863,22.962c3.806,6.153 5.324,13.726 7.785,20.7c1.586,4.507 3.552,8.677 7.278,11.946c1.416,1.243 2.689,3.29 2.93,5.117c1.184,8.909 7.625,15.591 9.836,24.167c1.286,4.973 5.197,9.273 8.001,13.836c0.309,0.508 1.04,0.863 1.653,1.07c1.667,0.567 2.821,0.004 3.016,-1.569c1.243,-10.068 6.195,-19.135 7.785,-29.123c0.85,-5.316 2.372,-10.534 3.082,-15.862c0.618,-4.601 1.637,-9.257 -0.524,-13.942c-0.719,-1.561 -0.338,-4.145 0.474,-5.802c2.444,-5.003 2.791,-10.268 3.455,-15.668c1.48,-12.018 1.45,-24.146 3.108,-36.134c0.275,-1.992 1.218,-4.263 0.604,-5.954c-3.357,-9.266 -0.786,-18.691 -1.141,-28.016c-0.465,-12.153 -1.277,-24.438 -4.364,-36.046c-3.476,-13.067 -6.517,-26.083 -8.204,-39.479c-1.675,-13.321 -4.893,-26.409 -6.259,-39.797c-0.342,-3.324 -1.129,-6.656 -2.123,-9.857c-3.59,-11.608 -7.07,-23.263 -11.168,-34.693c-2.254,-6.288 -3.835,-12.974 -8.275,-18.365c-1.252,-1.523 -2.571,-3.46 -2.749,-5.316c-0.753,-7.747 -4.567,-13.929 -8.838,-20.137c-2.237,-3.256 -3.747,-7.21 -4.762,-11.063c-1.712,-6.508 -3.869,-12.91 -5.294,-19.465c-1.167,-5.357 -2.169,-10.457 -6.356,-14.521c-1.243,-1.205 -1.565,-3.62 -1.81,-5.548c-0.774,-6.047 -2.427,-11.828 -4.563,-17.524c-5.67,-15.16 -12.098,-30.016 -18.289,-44.96c-2.804,-6.775 -7.929,-12.526 -8.449,-20.366c-0.114,-1.755 -1.789,-3.632 -3.18,-5.024c-2.478,-2.482 -4.136,-5.239 -4.724,-8.715c-0.219,-1.307 -0.837,-2.558 -1.348,-3.802c-3.02,-7.299 -11.723,-11.312 -11.122,-20.915c0.469,-7.608 -4.398,-14.001 -6.791,-20.97c-1.73,-5.028 -2.855,-10.593 -2.681,-15.867c0.228,-6.922 3.095,-13.198 9.857,-16.572c2.393,-1.193 5.442,-1.256 7.586,-2.724c9.088,-6.212 18.991,-9.717 29.859,-11.624c10.581,-1.857 20.848,-5.4 31.762,-5.612c6.737,-0.127 13.334,-1.89 20.193,-1.408c3.932,0.275 8.034,-0.787 11.959,-1.679c12.517,-2.854 25.051,-5.379 37.919,-6.233c5.336,-0.355 10.58,-2.69 15.883,-2.753c8.817,-0.11 17.422,-1.286 26.032,-2.876c1.983,-0.367 4.115,-0.964 6.013,-0.6c12.145,2.334 24.075,-0.529 36.11,-1.061c12.132,-0.533 24.345,-0.44 36.468,0.3c16.86,1.032 33.653,0.389 50.428,-0.909c12.784,-0.99 25.715,0.6 38.397,-2.309c1.886,-0.432 4.051,0.072 6.035,0.427c5.434,0.972 10.724,0.135 16.115,-0.601c14.015,-1.915 27.978,-4.021 42.284,-3.095c8.66,0.558 17.439,-0.706 26.167,-1.129c4.051,-0.199 8.255,-1.133 12.128,-0.385c14.902,2.871 29.568,-0.918 44.347,-1.006c2.005,-0.013 4.034,-0.986 6.005,-0.842c17.499,1.26 35.103,0.376 52.551,2.592c5.349,0.681 10.703,1.324 16.06,1.92c8.052,0.901 16.099,1.814 24.164,2.58c3.336,0.317 6.706,0.236 10.06,0.393c18.864,0.875 37.843,0.863 56.191,6.161c7.215,2.081 14.56,2.821 21.952,3.514c2.689,0.254 5.561,-0.029 8.03,0.842c13.164,4.656 26.582,3.903 40.089,2.478c2.655,-0.279 5.396,-0.271 8.043,0.051c17.418,2.118 34.895,3.581 52.356,5.269c16.099,1.552 32.261,3.315 47.751,8.516c3.844,1.294 7.722,2.516 11.473,4.052c7.628,3.125 14.31,7.544 18.949,14.606c1.848,2.82 4.021,5.442 5.675,8.364c0.964,1.696 1.691,3.814 1.678,5.734c-0.08,9.794 -2.761,18.619 -10.212,25.55c-9.955,9.257 -20.332,17.71 -33.526,22.218c-8.284,2.829 -16.124,6.952 -24.387,9.862c-6.977,2.452 -14.208,4.292 -21.452,5.818c-3.954,0.833 -7.904,1.299 -11.752,2.796c-3.07,1.192 -6.529,1.539 -9.857,1.864c-6.005,0.588 -12.17,0.254 -17.909,2.347c-3.933,1.434 -7.764,1.815 -11.891,1.578c-8.8,-0.508 -17.249,0.985 -25.897,3.176c-15.033,3.801 -30.43,6.41 -45.81,8.559c-14.682,2.05 -29.263,5.404 -44.241,4.884c-13.194,2.778 -26.722,3.239 -39.949,5.806c-17.9,3.472 -35.885,6.516 -54.166,6.719c-8.234,0.093 -16.057,1.992 -23.956,3.751c-0.82,0.182 -1.438,1.26 -2.153,1.924c0.567,0.347 1.1,0.909 1.705,1.002c3.962,0.605 7.831,0.774 11.24,3.768c6.334,5.574 13.904,7.045 22.459,7.248c8.575,0.208 17.621,0.787 25.372,5.747c11.21,2.58 21.842,6.838 32.511,11.033c3.108,1.226 6.546,2.114 9.861,2.22c9.718,0.309 18.425,3.831 26.98,7.836c8.55,3.996 17.337,7.328 26.433,9.73c9.896,2.614 19.313,6.014 27.432,12.53c3.202,2.571 7.206,4.229 11.312,3.755c5.679,-0.651 10.559,1.201 15.52,3.337c7.425,3.197 14.872,6.347 22.34,9.443c1.857,0.773 3.916,2 5.734,1.78c8.936,-1.087 15.266,4.368 22.282,8.225c4.131,2.271 8.288,4.533 12.589,6.449c10.001,4.444 19.283,9.658 24.738,19.773c1.653,3.07 4.698,4.724 7.328,6.838c1.438,1.159 2.639,3.227 2.956,5.053c1.155,6.644 2.055,13.346 2.702,20.057c0.254,2.631 -0.067,5.439 -0.723,8.014c-2.169,8.491 -4.296,17.021 -7.108,25.309c-1.015,3.002 -3.912,5.366 -5.95,8.022c-8.305,2.711 -15.071,9.295 -24.282,9.696c-4.867,0.212 -9.218,2.136 -13.506,4.073c-6.301,2.841 -12.856,3.653 -19.685,4.119c-11.43,0.778 -23.009,-0.195 -34.299,2.617c-1.916,0.478 -4.047,0.275 -6.064,0.14c-18.18,-1.218 -36.342,0.943 -46.276,0.317" style="fill-rule:nonzero;"/><path d="M971.327,182.015c-3.489,0.423 -5.802,-1.645 -8.314,-3.615c-1.552,-1.218 -1.848,-1.819 -0.017,-2.533c0.512,-0.203 1.379,-0.085 1.831,0.241c2.419,1.734 5.967,2.465 6.014,6.423l0.486,-0.516Z" style="fill:#fff;fill-rule:nonzero;"/><path d="M973.961,1034.1c-0.393,0.973 -0.786,1.95 -1.18,2.922c-0.287,-0.49 -0.702,-0.947 -0.82,-1.476c-0.119,-0.524 -0.064,-1.171 0.148,-1.666c0.211,-0.494 0.706,-0.867 1.078,-1.294c0.258,0.504 0.516,1.011 0.774,1.514" style="fill:#fff;fill-rule:nonzero;"/><path d="M2043.65,1253.99c-4.153,-0.305 -10.36,0.106 -15.807,-3.227c-1.074,-0.659 -1.84,-1.924 -2.529,-3.04c-0.144,-0.241 0.541,-1.256 1.057,-1.599c3.92,-2.626 7.608,-5.894 11.908,-7.607c11.3,-4.499 21.664,-10.881 32.824,-15.604c2.432,-1.028 5.231,-1.172 7.836,-1.814c2.613,-0.643 5.645,-0.761 7.722,-2.216c10.174,-7.117 22.585,-8.83 33.419,-14.238c10.306,-5.147 21.613,-7.443 32.253,-11.672c6.872,-2.736 13.862,-4.812 20.133,-9.079c6.204,-4.22 13.612,-5.852 21.076,-6.554c6.123,-0.58 11.684,-2.436 17.401,-4.813c8.661,-3.607 17.922,-5.768 26.955,-8.47c6.406,-1.92 13.113,-2.867 17.946,-8.487c1.54,-1.789 4.846,-3.032 7.265,-2.918c9.05,0.44 17,-3.298 25.415,-5.455c13.71,-3.51 26.552,-9.625 40.41,-12.665c4.588,-1.006 8.94,-2.698 13.794,-2.694c2.546,0 5.455,-0.824 7.561,-2.232c5.261,-3.519 11.629,-3.079 17.241,-5.401c2.812,-1.163 6.614,-0.131 9.937,0.191c2.821,0.275 5.016,1.97 6.703,4.161c5.937,7.709 8.576,16.712 9.899,26.167c0.436,3.104 -2.82,8.623 -5.789,9.934c-4.93,2.173 -9.777,4.787 -14.94,6.148c-7.848,2.072 -15.659,3.916 -22.687,8.255c-1.573,0.968 -3.857,0.778 -5.802,1.163c-11.206,2.216 -22.78,2.816 -33.411,7.565c-18.417,1.252 -34.849,9.844 -52.395,14.395c-14.305,3.708 -28.18,9.087 -42.938,11.168c-2,0.283 -4.06,0.676 -5.895,1.467c-13.067,5.62 -27.039,8.377 -40.643,12.018c-16.813,4.504 -33.792,8.995 -51.341,10.225c-3.332,0.233 -6.698,0.842 -9.912,1.764c-12.323,3.539 -24.658,7.057 -36.849,11.011c-8.479,2.745 -17.161,3.629 -27.817,4.153" style="fill-rule:nonzero;"/><path d="M2364.6,1216.45c9.913,0.254 15.879,3.882 19.981,10.894c3.485,5.962 4.893,12.513 5.899,19.177c1.079,7.168 -6.69,14.995 -13.785,13.946c-2.648,-0.393 -5.193,-1.628 -7.84,-1.86c-2.61,-0.229 -5.735,-0.482 -7.841,0.698c-5.036,2.812 -10.326,2.824 -15.705,2.875c-2.681,0.03 -5.599,-0.972 -8.005,-0.216c-9.117,2.868 -18.18,4.72 -27.627,1.836c-9.332,1.306 -18.716,2.326 -27.964,4.055c-3.996,0.749 -7.9,1.611 -11.968,1.387c-6.554,-0.359 -12.627,-3.831 -19.803,-0.782c-5.315,2.258 -11.98,1.125 -17.676,2.774c-4.178,1.205 -7.688,1.027 -11.705,0.021c-3.184,-0.799 -6.656,-0.444 -10.001,-0.596c-9.134,5.21 -20.066,1.725 -29.432,6.051c-1.734,0.804 -4.001,0.871 -5.963,0.689c-8.758,-0.82 -17.486,-0.304 -26.243,0.009c-8.839,0.317 -17.431,-1.459 -25.69,-4.698c-2.757,-1.083 -4.377,-6.267 -2.707,-8.61c4.052,-5.675 8.826,-10.107 16.332,-10.538c6.11,-0.355 11.95,-1.738 17.38,-4.85c2.279,-1.311 4.982,-2.263 7.586,-2.563c11.376,-1.319 22.244,-5.726 33.881,-5.451c1.95,0.047 4.106,-0.317 5.849,-1.154c11.295,-5.426 23.702,-4.238 35.572,-6.2c3.971,-0.659 8.115,-0.681 11.912,-1.852c7.185,-2.216 14.479,-2.846 21.909,-3.049c6.728,-0.177 13.456,-0.566 20.171,-1.061c2.669,-0.195 5.612,-0.317 7.895,-1.501c10.031,-5.223 20.823,-4.449 31.572,-5.105c8.61,-0.524 17.465,0.411 25.851,-3.12c2.985,-1.261 6.613,-1.003 8.165,-1.206" style="fill-rule:nonzero;"/><path d="M1397.52,376.127c0.127,1.75 0.394,6.474 0.821,11.185c0.533,5.806 3.095,8.846 8.415,9.832c3.303,0.613 6.796,1.678 9.993,1.179c9.996,-1.552 20.26,-0.393 30.112,-3.45c8.28,-2.567 16.015,-0.22 23.347,3.801c2.643,1.451 3.802,6.462 2.229,8.965c-3.011,4.775 -7.18,7.963 -12.576,9.612c-5.151,1.569 -10.395,2.922 -15.406,4.872c-8.347,3.248 -16.872,4.74 -25.808,4.021c-4.038,-0.325 -8.098,-0.786 -12.14,-0.71c-11.291,0.203 -21.165,-4.026 -30.447,-9.735c-6.716,-4.127 -10.133,-10.085 -10.052,-18.547c0.08,-8.043 -0.537,-16.086 0.448,-24.125c0.161,-1.29 0.152,-2.685 -0.161,-3.937c-1.526,-6.123 -0.93,-11.938 1.506,-17.794c0.994,-2.385 0.537,-5.333 1.032,-7.972c0.651,-3.45 2.803,-6.038 5.328,-8.389c6.148,-5.718 15.87,-2.335 18.661,4.457c3.075,7.476 4.846,15.451 4.707,23.689c-0.055,3.362 -0.009,6.724 -0.009,13.046" style="fill-rule:nonzero;"/><path d="M1311.09,258.047c-0.338,2.731 -0.465,4.765 -0.875,6.74c-0.411,1.979 -1.464,3.869 -1.612,5.844c-0.401,5.341 0.085,10.801 -0.824,16.031c-0.914,5.27 -3.159,10.297 -4.673,15.478c-1.488,5.083 0.804,7.383 6.288,6.005c7.168,-1.802 14.272,-3.878 21.351,-6.014c5.155,-1.556 10.23,-3.387 15.334,-5.117c3.949,-1.336 7.945,-1.247 12.001,-0.575c6.495,1.07 9.646,8.83 5.438,14.107c-2.059,2.584 -4.533,5.126 -7.358,6.758c-9.997,5.768 -20.586,10.255 -32.227,11.265c-5.544,0.482 -10.678,1.713 -15.182,4.952c-4.017,2.893 -8.838,3.091 -13.307,4.508c-6.94,2.199 -13.338,0.508 -19.791,-1.67c-2.093,-0.702 -3.497,-2.322 -3.878,-4.292c-1.281,-6.593 -2.38,-13.228 -3.307,-19.88c-0.27,-1.924 -0.012,-4.042 0.504,-5.941c2.118,-7.79 4.461,-15.52 6.66,-23.288c1.839,-6.499 3.654,-12.986 3.975,-19.824c0.089,-1.848 1.205,-3.886 2.406,-5.392c3.353,-4.203 6.906,-8.254 10.551,-12.208c3.497,-3.794 11.925,-2.694 14.183,1.907c1.768,3.603 3.066,7.434 4.343,10.606" style="fill-rule:nonzero;"/></svg>